if (_typeface_js && _typeface_js.loadFace) _typeface_js.loadFace({"glyphs":{"0":{"ha":1349,"x_min":93,"x_max":1432,"o":"m 488 590 l 392 356 q 439 264 372 306 q 600 231 513 224 l 739 231 q 928 264 822 225 q 1047 356 1029 306 l 1143 590 q 1086 657 1153 617 q 925 692 1013 697 l 786 692 q 597 657 704 697 q 488 590 499 618 m 692 0 l 461 0 q 225 74 307 7 q 151 147 185 108 q 93 231 118 186 l 279 692 q 401 774 338 735 q 538 847 465 813 q 833 922 679 915 l 1064 922 q 1297 847 1217 915 q 1432 692 1386 779 l 1246 231 q 985 74 1128 142 q 692 0 850 7 m 953 588 l 858 356 l 572 356 l 667 588 l 953 588 z "},"1":{"ha":1349,"x_min":0,"x_max":1246,"o":"m 0 0 l 692 0 q 985 74 850 7 q 1246 231 1128 142 l 1150 392 q 1031 315 1086 347 q 928 264 975 283 q 785 231 822 225 l 1064 922 l 372 922 l 279 692 l 740 692 l 554 231 l 93 231 l 0 0 z "},"2":{"ha":1349,"x_min":0,"x_max":1432,"o":"m 233 576 l 0 0 l 1153 0 l 1246 231 l 338 231 l 388 356 l 1296 356 l 1432 692 q 1297 847 1386 779 q 1064 922 1217 915 l 372 922 l 279 692 l 925 692 q 1086 657 1013 697 q 1138 576 1153 618 l 233 576 z "},"3":{"ha":1349,"x_min":0,"x_max":1432,"o":"m 525 588 l 431 356 l 1047 356 q 928 264 1029 306 q 739 231 822 225 l 93 231 l 0 0 l 692 0 q 985 74 850 7 q 1246 231 1128 142 l 1432 692 q 1297 847 1386 779 q 1064 922 1217 915 l 372 922 l 279 692 l 925 692 q 1086 657 1013 697 q 1144 588 1154 618 l 525 588 z "},"4":{"ha":1349,"x_min":86,"x_max":1525,"o":"m 1206 701 l 514 701 l 603 922 l 372 922 l 193 479 l 1346 479 l 1525 922 l 1294 922 l 1206 701 m 86 213 l 1008 213 l 922 0 l 1153 0 l 1326 429 l 174 429 l 86 213 z "},"5":{"ha":1349,"x_min":0,"x_max":1525,"o":"m 1386 576 l 1246 231 q 985 74 1128 142 q 692 0 850 7 l 0 0 l 93 231 l 739 231 q 928 264 822 225 q 1051 356 1029 306 l 143 356 l 372 922 l 1525 922 l 1432 692 l 528 692 l 482 576 l 1386 576 z "},"6":{"ha":1349,"x_min":0,"x_max":1432,"o":"m 569 692 l 476 461 l 1094 461 l 1057 369 q 928 264 1028 306 q 739 231 828 225 l 324 231 l 603 922 l 372 922 l 0 0 l 692 0 q 985 74 850 6 q 1246 231 1128 142 l 1432 692 l 569 692 z "},"7":{"ha":1349,"x_min":279,"x_max":1525,"o":"m 1525 922 l 833 922 q 538 847 679 915 q 404 774 468 813 q 279 692 340 736 l 375 531 q 598 657 500 618 q 786 692 696 696 l 1201 692 l 922 0 l 1153 0 l 1525 922 z "},"8":{"ha":1349,"x_min":0,"x_max":1432,"o":"m 78 193 l 0 0 l 1153 0 l 1279 314 q 1232 391 1258 360 q 1181 443 1206 422 q 1140 475 1157 464 q 1121 493 1122 486 l 1351 493 l 1432 692 q 1297 847 1386 779 q 1198 902 1253 882 q 1064 922 1143 922 l 833 922 q 538 847 679 915 q 401 774 465 813 q 279 692 338 735 l 199 493 l 429 493 q 395 476 422 488 q 327 442 368 464 q 234 390 286 421 q 126 314 182 358 l 78 193 m 946 567 l 476 567 q 597 657 497 618 q 683 684 642 675 q 767 693 725 693 l 947 693 q 1021 684 988 693 q 1086 657 1054 675 q 1136 567 1154 618 l 946 567 m 743 225 l 338 225 q 449 297 346 244 q 551 341 501 325 q 647 364 601 357 l 800 364 q 876 341 842 357 q 942 297 911 325 q 997 225 1006 242 l 743 225 z "},"9":{"ha":1349,"x_min":93,"x_max":1525,"o":"m 954 231 l 1047 461 l 431 461 l 468 554 q 597 657 499 618 q 786 692 704 697 l 1201 692 l 922 0 l 1153 0 l 1525 922 l 833 922 q 538 847 679 915 q 404 774 468 813 q 279 692 340 736 l 93 231 l 954 231 z "}," ":{"ha":536,"x_min":0,"x_max":0,"o":""},"!":{"ha":432,"x_min":0,"x_max":621,"o":"m 363 281 l 621 922 l 372 922 l 114 281 l 363 281 m 249 0 l 342 231 l 93 231 l 0 0 l 249 0 z "},"\"":{"ha":849,"x_min":219,"x_max":1038,"o":"m 565 544 q 708 713 689 668 l 793 922 l 1038 922 l 953 711 q 908 644 943 686 q 807 544 872 603 l 565 544 m 219 544 q 363 713 343 668 l 447 922 l 692 922 l 607 711 q 461 544 590 667 l 219 544 z "},"#":{"ha":1158,"x_min":72,"x_max":1265,"o":"m 199 493 l 364 493 l 331 410 l 164 410 l 72 181 l 239 181 l 165 0 l 415 0 l 489 181 l 632 181 l 558 0 l 808 0 l 882 181 l 1046 181 l 1138 410 l 974 410 l 1007 493 l 1172 493 l 1265 722 l 1100 722 l 1181 922 l 931 922 l 850 722 l 707 722 l 788 922 l 538 922 l 457 722 l 292 722 l 199 493 m 757 493 l 724 410 l 581 410 l 614 493 l 757 493 z "},"$":{"ha":1349,"x_min":0,"x_max":1525,"o":"m 403 -126 l 651 -126 l 703 0 q 985 74 851 8 q 1246 231 1128 142 l 1386 576 l 936 576 l 982 692 l 1432 692 l 1525 922 l 1075 922 l 1128 1053 l 879 1053 l 826 922 q 538 847 675 914 q 401 774 465 813 q 279 692 338 735 l 143 356 l 597 356 l 547 231 l 93 231 l 0 0 l 454 0 l 403 -126 m 846 356 l 1051 356 q 928 264 1029 306 q 796 231 860 238 l 846 356 m 733 692 l 688 576 l 482 576 q 597 657 497 617 q 666 680 632 671 q 733 692 700 689 z "},"%":{"ha":1589,"x_min":125,"x_max":1657,"o":"m 381 0 l 125 0 l 1389 919 l 1657 919 l 381 0 m 428 754 l 381 638 q 404 592 372 611 q 442 577 422 582 q 485 575 461 572 l 554 575 q 601 577 578 572 q 649 592 624 582 q 708 638 700 613 l 756 754 q 728 788 761 768 q 647 806 697 808 l 578 806 q 483 788 531 808 q 428 754 435 769 m 532 460 l 417 460 q 297 496 340 461 q 232 575 258 533 l 325 806 q 454 883 386 850 q 603 921 522 917 l 718 921 q 835 883 790 917 q 874 847 857 865 q 901 806 890 828 l 808 575 q 746 533 778 551 q 678 496 714 514 q 532 460 610 463 m 1074 300 l 1026 183 q 1050 138 1017 158 q 1088 123 1068 128 q 1131 121 1107 118 l 1200 121 q 1247 123 1224 118 q 1294 138 1269 128 q 1354 183 1343 158 l 1401 300 q 1374 333 1407 314 q 1293 351 1343 354 l 1224 351 q 1129 333 1176 354 q 1074 300 1081 315 m 1178 6 l 1063 6 q 943 42 986 7 q 878 121 904 79 l 971 351 q 1100 429 1032 396 q 1249 467 1168 463 l 1364 467 q 1481 429 1436 463 q 1519 392 1503 411 q 1547 351 1536 374 l 1454 121 q 1392 78 1424 97 q 1324 42 1360 60 q 1178 6 1256 8 z "},"&":{"ha":1563,"x_min":0,"x_max":1613,"o":"m 126 314 l 0 0 l 1153 0 l 1279 311 l 1510 311 l 1613 567 l 476 567 q 597 657 497 618 q 678 683 640 674 q 757 692 717 692 l 969 692 l 1063 922 l 833 922 q 683 902 757 922 q 538 847 608 882 q 401 774 465 813 q 279 692 338 735 l 199 493 l 429 493 q 397 476 424 488 q 328 442 369 464 q 234 390 286 421 q 126 314 182 358 m 997 225 l 338 225 q 449 297 346 244 q 551 341 501 325 q 647 364 601 357 l 800 364 q 876 341 842 357 q 942 297 911 325 q 997 225 1006 242 z "},"'":{"ha":503,"x_min":219,"x_max":692,"o":"m 219 544 q 363 713 343 668 l 447 922 l 692 922 l 607 711 q 461 544 590 667 l 219 544 z "},"(":{"ha":689,"x_min":93,"x_max":879,"o":"m 440 475 l 488 590 q 597 657 499 618 q 683 684 642 675 q 767 693 725 693 l 786 692 l 879 922 l 833 922 q 538 847 679 915 q 404 774 468 813 q 279 692 340 736 l 93 231 q 147 147 114 188 q 224 73 179 106 q 328 20 269 40 q 461 0 386 0 l 507 0 l 600 231 l 579 229 q 503 238 538 229 q 439 265 469 247 q 392 356 372 306 l 440 475 z "},")":{"ha":689,"x_min":0,"x_max":786,"o":"m 450 475 l 497 590 q 440 657 507 617 q 301 693 372 693 l 279 692 l 372 922 l 418 922 q 653 847 569 915 q 730 774 697 813 q 786 692 763 735 l 600 231 q 476 147 540 186 q 340 74 411 108 q 197 19 268 39 q 46 0 125 0 l 0 0 l 93 231 l 114 229 q 282 265 190 229 q 401 356 381 304 l 450 475 z "},"*":{"ha":749,"x_min":272,"x_max":933,"o":"m 933 919 l 836 1083 l 671 965 l 600 1083 l 369 919 l 440 801 l 272 681 l 369 517 l 538 638 l 610 518 l 839 682 l 769 801 l 933 919 z "},"+":{"ha":749,"x_min":143,"x_max":806,"o":"m 704 754 l 472 754 l 406 588 l 238 588 l 143 356 l 311 356 l 243 186 l 475 186 l 543 356 l 711 356 l 806 588 l 638 588 l 704 754 z "},",":{"ha":425,"x_min":-135,"x_max":338,"o":"m -135 -147 q 8 21 -14 -22 l 93 231 l 338 231 l 253 19 q 107 -147 236 -25 l -135 -147 z "},"-":{"ha":749,"x_min":143,"x_max":806,"o":"m 238 588 l 806 588 l 711 356 l 143 356 l 238 588 z "},".":{"ha":429,"x_min":0,"x_max":342,"o":"m 249 0 l 0 0 l 93 231 l 342 231 l 249 0 z "},"/":{"ha":1349,"x_min":0,"x_max":1532,"o":"m 1532 919 l 1264 919 l 0 0 l 256 0 l 1532 919 z "},":":{"ha":429,"x_min":-135,"x_max":621,"o":"m 528 692 l 279 692 l 372 922 l 621 922 l 528 692 m -135 -147 q -37 -42 -72 -85 q 8 21 -3 0 l 93 231 l 338 231 l 253 19 q 107 -147 236 -25 l -135 -147 z "},";":{"ha":429,"x_min":0,"x_max":621,"o":"m 249 0 l 342 231 l 93 231 l 0 0 l 249 0 m 372 922 l 279 692 l 528 692 l 621 922 l 372 922 z "},"<":{"ha":933,"x_min":156,"x_max":1074,"o":"m 536 700 l 351 700 l 193 478 l 515 478 q 633 503 564 478 q 799 586 703 528 q 962 703 894 642 q 1074 833 1029 765 l 903 922 q 729 774 824 835 q 536 700 631 708 m 156 200 l 336 204 q 472 135 424 197 q 528 -10 519 75 l 768 75 q 693 319 792 211 q 506 422 601 421 l 167 422 l 156 200 z "},"=":{"ha":749,"x_min":67,"x_max":854,"o":"m 286 707 l 854 707 l 760 475 l 192 475 l 286 707 m 160 396 l 728 396 l 635 164 l 67 164 l 160 396 z "},">":{"ha":933,"x_min":26,"x_max":949,"o":"m 764 700 l 949 700 l 926 478 l 604 478 q 506 503 556 478 q 407 586 456 528 q 332 833 311 694 l 575 922 q 593 841 579 878 q 629 774 607 804 q 764 700 678 708 m 739 200 l 561 204 q 369 135 468 197 q 197 -10 276 75 l 26 75 q 299 319 111 208 q 569 422 471 421 l 908 422 l 739 200 z "},"?":{"ha":1349,"x_min":0,"x_max":1432,"o":"m 233 576 l 114 283 l 358 283 l 388 356 l 1296 356 l 1432 692 q 1297 847 1386 779 q 1064 922 1217 915 l 372 922 l 279 692 l 925 692 q 1086 657 1013 697 q 1138 576 1153 618 l 233 576 m 249 0 l 342 231 l 93 231 l 0 0 l 249 0 z "},"@":{"ha":1349,"x_min":93,"x_max":1525,"o":"m 1525 922 l 833 922 q 538 847 679 915 q 401 774 465 813 q 279 692 338 735 l 93 231 q 151 147 118 186 q 225 74 185 108 q 461 0 307 7 l 1153 0 l 1246 231 l 1069 231 l 1121 358 l 996 690 l 1185 690 l 1093 465 l 1342 465 l 1525 922 m 488 590 q 597 657 499 618 q 685 685 647 676 q 767 690 722 693 l 899 690 l 525 357 l 476 239 q 457 250 461 243 q 439 264 453 257 q 392 356 372 306 l 488 590 m 654 319 l 885 538 l 960 321 l 654 319 z "},"A":{"ha":1349,"x_min":0,"x_max":1246,"o":"m 979 238 l 854 689 l 351 238 l 979 238 m 1153 0 l 0 0 l 93 231 l 861 922 l 1035 922 l 1246 231 l 1153 0 z "},"B":{"ha":1349,"x_min":0,"x_max":1432,"o":"m 1231 193 l 1279 314 q 1232 391 1258 360 q 1181 443 1206 422 q 1140 475 1157 464 q 1121 493 1122 486 l 1351 493 l 1432 692 q 1297 847 1386 779 q 1198 902 1253 882 q 1064 922 1143 922 l 372 922 l 0 0 l 1153 0 l 1231 193 m 847 225 l 321 225 l 378 364 l 800 364 q 876 341 842 357 q 942 297 911 325 q 997 225 1006 242 l 847 225 m 1136 567 l 457 567 l 507 692 l 925 692 l 947 693 q 1021 684 988 693 q 1086 657 1054 675 q 1136 567 1154 618 z "},"C":{"ha":1349,"x_min":93,"x_max":1525,"o":"m 488 590 l 392 356 q 439 264 372 306 q 600 231 513 224 l 1246 231 l 1153 0 l 461 0 q 225 74 307 7 q 151 147 185 108 q 93 231 118 186 l 279 692 q 401 774 338 735 q 538 847 465 813 q 833 922 679 915 l 1525 922 l 1432 692 l 786 692 q 597 657 704 697 q 488 590 499 618 z "},"D":{"ha":1349,"x_min":0,"x_max":1432,"o":"m 508 642 l 342 231 l 739 231 q 928 264 822 225 q 1047 356 1029 306 l 1096 475 l 1143 590 q 1086 657 1153 617 q 925 692 1013 697 l 279 692 l 372 922 l 1064 922 q 1297 847 1217 915 q 1432 692 1386 779 l 1246 231 q 985 74 1128 142 q 692 0 850 7 l 0 0 l 260 642 l 508 642 z "},"E":{"ha":1349,"x_min":93,"x_max":1525,"o":"m 1101 588 l 1007 356 l 392 356 q 439 264 372 306 q 600 231 513 224 l 1246 231 l 1153 0 l 461 0 q 225 74 307 7 q 151 147 185 108 q 93 231 118 186 l 279 692 q 401 774 338 735 q 538 847 465 813 q 833 922 679 915 l 1525 922 l 1432 692 l 786 692 q 597 657 704 697 q 485 588 497 618 l 1101 588 z "},"F":{"ha":1349,"x_min":0,"x_max":1525,"o":"m 1100 586 l 1007 356 l 392 356 l 249 0 l 0 0 l 279 692 q 403 774 338 733 q 538 848 468 815 q 683 901 608 881 q 833 922 757 922 l 1525 922 l 1432 692 l 786 692 l 767 693 q 683 684 725 693 q 597 657 642 675 q 483 586 499 618 l 1100 586 z "},"G":{"ha":1349,"x_min":93,"x_max":1525,"o":"m 1047 356 l 997 231 l 600 231 l 579 229 q 504 238 540 229 q 439 265 468 246 q 392 356 372 306 l 488 590 q 597 657 499 618 q 683 684 642 675 q 767 693 725 693 l 786 692 l 1432 692 l 1525 922 l 833 922 q 538 847 679 915 q 401 774 465 813 q 279 692 338 735 l 93 231 q 150 147 118 189 q 225 73 182 106 q 326 20 268 40 q 461 0 383 0 l 1153 0 l 1389 586 l 754 586 l 661 356 l 1047 356 z "},"H":{"ha":1349,"x_min":0,"x_max":1525,"o":"m 1206 701 l 514 701 l 603 922 l 372 922 l 193 479 l 1346 479 l 1525 922 l 1294 922 l 1206 701 m 1008 213 l 922 0 l 1153 0 l 1326 429 l 174 429 l 0 0 l 231 0 l 317 213 l 1008 213 z "},"I":{"ha":432,"x_min":0,"x_max":621,"o":"m 249 0 l 621 922 l 372 922 l 0 0 l 249 0 z "},"J":{"ha":1349,"x_min":93,"x_max":1525,"o":"m 1153 0 l 461 0 q 225 74 307 7 q 151 147 185 108 q 93 231 118 186 l 319 392 q 440 267 372 304 q 600 231 508 231 l 1015 231 l 1294 922 l 1525 922 l 1153 0 z "},"K":{"ha":1349,"x_min":0,"x_max":1489,"o":"m 951 700 q 1144 774 1046 708 q 1318 922 1239 835 l 1489 833 q 1214 586 1400 697 q 940 479 1032 479 l 193 479 l 372 922 l 603 922 l 514 701 l 951 700 m 317 213 l 231 0 l 0 0 l 174 429 l 907 429 l 922 429 q 1110 326 1019 429 q 1185 79 1208 219 l 942 -10 q 888 139 933 78 q 758 213 846 204 l 317 213 z "},"L":{"ha":1349,"x_min":111,"x_max":1249,"o":"m 371 919 l 604 919 l 419 461 q 424 294 386 361 q 558 231 461 231 l 1249 231 l 1156 0 l 465 0 q 186 133 261 0 q 182 449 111 265 l 371 919 z "},"M":{"ha":1349,"x_min":0,"x_max":1406,"o":"m 514 701 l 231 0 l 0 0 l 372 921 l 1115 921 q 1307 814 1208 921 q 1381 565 1406 704 l 1153 0 l 946 0 l 1139 476 q 1122 556 1135 518 q 1085 626 1108 594 q 975 701 1042 690 l 692 0 l 461 0 l 744 701 l 514 701 z "},"N":{"ha":1349,"x_min":0,"x_max":1432,"o":"m 249 0 l 528 692 l 925 692 l 947 693 q 1086 657 1018 693 q 1143 590 1153 617 l 904 0 l 1153 0 l 1432 692 q 1297 847 1386 779 q 1198 902 1253 882 q 1064 922 1143 922 l 372 922 l 0 0 l 249 0 z "},"O":{"ha":1349,"x_min":93,"x_max":1432,"o":"m 392 356 l 488 590 q 597 657 499 618 q 786 692 704 697 l 925 692 q 1086 657 1013 697 q 1143 590 1153 617 l 1047 356 q 928 264 1029 306 q 739 231 828 225 l 600 231 q 439 264 513 224 q 392 356 372 306 m 558 0 l 692 0 q 985 74 850 6 q 1246 231 1128 142 l 1432 692 q 1297 847 1386 779 q 1064 922 1215 915 l 833 922 q 538 847 679 915 q 404 774 468 813 q 279 692 340 736 l 93 231 q 151 147 118 186 q 225 74 185 108 q 461 0 307 7 l 558 0 z "},"P":{"ha":1349,"x_min":0,"x_max":1432,"o":"m 388 231 l 481 461 l 1094 461 l 1132 554 q 1086 657 1153 617 q 925 692 1013 697 l 510 692 l 231 0 l 0 0 l 372 922 l 1064 922 q 1297 847 1215 915 q 1432 692 1386 779 l 1246 231 l 388 231 z "},"Q":{"ha":1349,"x_min":93,"x_max":1432,"o":"m 392 356 l 488 590 q 597 657 499 618 q 786 692 704 697 l 925 692 q 1086 657 1013 697 q 1143 590 1153 617 l 1047 356 q 928 264 1029 306 q 739 231 828 225 l 600 231 q 439 264 513 224 q 392 356 372 306 m 558 0 l 692 0 q 985 74 850 6 q 1246 231 1128 142 l 1432 692 q 1297 847 1386 779 q 1064 922 1215 915 l 833 922 q 538 847 679 915 q 404 774 468 813 q 279 692 340 736 l 93 231 q 151 147 118 186 q 225 74 185 108 q 461 0 307 7 l 558 0 m 535 286 l 821 286 q 1029 493 967 336 l 799 493 q 676 366 743 414 q 535 286 608 318 z "},"R":{"ha":1349,"x_min":0,"x_max":1432,"o":"m 1260 264 l 1113 264 q 1218 161 1169 250 l 1153 0 l 992 0 q 881 146 944 79 q 683 231 826 204 l 388 231 l 481 461 l 1094 461 l 1126 539 q 1086 657 1153 617 q 925 692 1013 697 l 510 692 l 231 0 l 0 0 l 372 922 l 1064 922 q 1297 847 1215 915 q 1432 692 1386 779 l 1260 264 z "},"S":{"ha":1349,"x_min":0,"x_max":1525,"o":"m 1386 576 l 482 576 q 597 657 497 617 q 683 684 642 675 q 767 693 725 693 l 786 692 l 1432 692 l 1525 922 l 833 922 q 538 847 679 915 q 404 774 468 813 q 279 692 340 736 l 143 356 l 1051 356 q 928 265 1026 304 q 760 229 836 229 l 739 231 l 93 231 l 0 0 l 692 0 q 985 74 850 6 q 1246 231 1128 142 l 1386 576 z "},"T":{"ha":1349,"x_min":235,"x_max":1432,"o":"m 742 696 q 622 668 699 696 q 540 636 549 642 l 518 581 l 235 581 l 279 692 q 404 774 340 736 q 538 847 468 813 q 833 922 679 915 l 1064 922 q 1297 847 1215 915 q 1432 692 1386 779 l 1386 576 l 1094 576 l 1121 642 q 1108 649 1121 642 q 1069 669 1094 656 q 972 696 1022 696 l 692 0 l 461 0 l 742 696 z "},"U":{"ha":1349,"x_min":93,"x_max":1525,"o":"m 392 356 l 621 922 l 372 922 l 93 231 q 151 147 118 186 q 225 74 185 108 q 461 0 307 7 l 692 0 q 985 74 850 6 q 1246 231 1128 142 l 1525 922 l 1276 922 l 1047 356 q 928 264 1029 306 q 739 231 828 225 l 600 231 q 439 264 513 224 q 392 356 372 306 z "},"V":{"ha":1349,"x_min":279,"x_max":1525,"o":"m 1160 685 l 669 232 l 532 685 l 1160 685 m 1525 922 l 372 922 l 279 692 l 489 0 l 663 0 l 1432 692 l 1525 922 z "},"W":{"ha":1349,"x_min":0,"x_max":1525,"o":"m 321 222 l 603 922 l 372 922 l 0 0 l 738 0 q 1022 111 833 0 q 1297 358 1208 221 l 1525 922 l 1318 922 l 1126 447 q 953 299 1047 360 q 782 224 857 233 l 1064 922 l 836 922 l 554 222 l 321 222 z "},"X":{"ha":1349,"x_min":29,"x_max":1489,"o":"m 951 700 l 767 700 q 632 774 681 708 q 581 922 588 835 l 336 833 q 411 586 313 697 q 510 503 460 528 q 608 478 560 478 l 936 478 q 1214 586 1032 478 q 1377 703 1310 642 q 1489 833 1444 765 l 1318 922 q 1144 774 1239 835 q 951 700 1046 708 m 564 204 l 751 204 q 888 135 839 197 q 943 -10 935 75 l 1183 75 q 1108 319 1207 211 q 919 422 1014 422 l 575 422 q 301 319 479 422 q 29 75 115 213 l 201 -10 q 372 135 276 71 q 564 204 469 197 z "},"Y":{"ha":1349,"x_min":0,"x_max":1525,"o":"m 799 588 l 1129 453 l 1318 922 l 1525 922 l 1294 350 q 1018 101 1206 213 q 749 -1 846 -1 l 733 0 l 0 0 l 88 217 l 760 217 q 913 265 846 225 l 619 382 q 469 510 524 439 l 317 772 l 544 933 l 686 696 q 735 638 708 665 q 799 588 763 611 z "},"Z":{"ha":1349,"x_min":93,"x_max":1432,"o":"m 233 576 l 93 231 q 150 147 118 189 q 225 73 182 106 q 326 20 268 40 q 461 0 383 0 l 1153 0 l 1246 231 l 600 231 l 579 229 q 504 238 540 229 q 439 265 468 246 q 388 356 371 306 l 1296 356 l 1432 692 q 1297 847 1386 779 q 1198 902 1253 882 q 1064 922 1143 922 l 372 922 l 279 692 l 925 692 l 947 693 q 1086 657 1018 693 q 1138 576 1153 618 l 233 576 z "},"[":{"ha":689,"x_min":93,"x_max":879,"o":"m 440 475 l 392 356 q 439 265 372 306 q 504 238 468 246 q 579 229 540 229 l 600 231 l 507 0 l 461 0 q 225 74 307 7 q 151 147 185 108 q 93 231 118 186 l 279 692 q 403 774 338 733 q 538 848 468 815 q 683 901 608 881 q 833 922 757 922 l 879 922 l 786 692 l 767 693 q 683 684 725 693 q 597 657 642 675 q 488 590 499 618 l 440 475 z "},"\\":{"ha":1349,"x_min":371,"x_max":1161,"o":"m 371 919 l 642 919 l 1161 0 l 907 0 l 371 919 z "},"]":{"ha":689,"x_min":0,"x_max":786,"o":"m 450 475 l 401 356 q 282 265 381 304 q 114 229 190 229 q 103 230 107 229 q 93 231 100 231 l 0 0 l 46 0 q 340 74 206 7 q 476 147 414 108 q 600 231 539 185 l 786 692 q 731 774 763 732 q 655 849 699 815 q 553 902 611 882 q 418 922 494 922 l 372 922 l 279 692 l 301 693 q 440 657 372 693 q 497 590 507 617 l 450 475 z "},"^":{"ha":1349,"x_min":0,"x_max":1246,"o":"m 856 690 l 381 272 l 131 272 l 861 922 l 1035 922 l 1246 231 l 1153 0 l 883 0 l 979 238 l 856 690 m 249 0 l 0 0 l 93 231 l 342 231 l 249 0 z "},"_":{"ha":1299,"x_min":-126,"x_max":1303,"o":"m -33 -83 l 1303 -83 l 1210 -314 l -126 -314 l -33 -83 z "},"`":{"ha":596,"x_min":422,"x_max":811,"o":"m 811 993 l 539 993 q 485 1201 422 1044 l 714 1201 q 736 1075 707 1124 q 811 993 765 1026 z "},"a":{"ha":1349,"x_min":0,"x_max":1246,"o":"m 979 238 l 854 689 l 351 238 l 979 238 m 1153 0 l 0 0 l 93 231 l 861 922 l 1035 922 l 1246 231 l 1153 0 z "},"b":{"ha":1349,"x_min":0,"x_max":1432,"o":"m 1153 0 l 1279 314 q 1232 391 1258 360 q 1181 443 1206 422 q 1140 475 1157 464 q 1121 493 1122 486 l 1351 493 l 1432 692 q 1297 847 1386 779 q 1064 922 1217 915 l 372 922 l 0 0 l 1153 0 m 847 225 l 321 225 l 378 364 l 800 364 q 876 341 842 357 q 942 297 911 325 q 997 225 1006 242 l 847 225 m 1136 567 l 457 567 l 507 692 l 925 692 q 1086 657 1013 697 q 1136 567 1154 618 z "},"c":{"ha":1349,"x_min":93,"x_max":1525,"o":"m 440 475 l 392 356 q 439 265 372 306 q 504 238 468 246 q 579 229 540 229 l 600 231 l 1246 231 l 1153 0 l 461 0 q 225 74 307 7 q 151 147 185 108 q 93 231 118 186 l 279 692 q 403 774 338 733 q 538 848 468 815 q 683 901 608 881 q 833 922 757 922 l 1525 922 l 1432 692 l 786 692 l 767 693 q 683 684 725 693 q 597 657 642 675 q 488 590 499 618 l 440 475 z "},"d":{"ha":1349,"x_min":0,"x_max":1432,"o":"m 0 0 l 692 0 q 985 74 850 7 q 1246 231 1128 142 l 1432 692 q 1297 847 1386 779 q 1064 922 1217 915 l 372 922 l 0 0 m 526 692 l 925 692 q 1086 657 1013 697 q 1143 590 1153 617 l 1047 356 q 928 264 1029 306 q 739 231 822 225 l 340 231 l 526 692 z "},"e":{"ha":1349,"x_min":93,"x_max":1525,"o":"m 1101 588 l 1007 356 l 392 356 q 439 265 372 306 q 504 238 468 246 q 579 229 540 229 l 600 231 l 1246 231 l 1153 0 l 461 0 q 225 74 307 7 q 151 147 185 108 q 93 231 118 186 l 279 692 q 403 774 338 733 q 538 848 468 815 q 683 901 608 881 q 833 922 757 922 l 1525 922 l 1432 692 l 786 692 l 767 693 q 683 684 725 693 q 597 657 642 675 q 485 588 497 618 l 1101 588 z "},"f":{"ha":1349,"x_min":0,"x_max":1525,"o":"m 1100 586 l 1007 356 l 392 356 l 249 0 l 0 0 l 279 692 q 401 774 338 735 q 538 847 465 813 q 833 922 679 915 l 1525 922 l 1432 692 l 786 692 q 597 657 704 697 q 483 586 499 618 l 1100 586 z "},"g":{"ha":1349,"x_min":93,"x_max":1525,"o":"m 1047 356 l 997 231 l 600 231 l 579 229 q 504 238 540 229 q 439 265 468 246 q 392 356 372 306 l 488 590 q 597 657 499 618 q 683 684 642 675 q 767 693 725 693 l 786 692 l 1432 692 l 1525 922 l 833 922 q 538 847 679 915 q 401 774 465 813 q 279 692 338 735 l 93 231 q 150 147 118 189 q 225 73 182 106 q 326 20 268 40 q 461 0 383 0 l 1153 0 l 1389 586 l 754 586 l 661 356 l 1047 356 z "},"h":{"ha":1349,"x_min":0,"x_max":1525,"o":"m 1206 701 l 1294 922 l 1525 922 l 1346 479 l 193 479 l 372 922 l 603 922 l 514 701 l 1206 701 m 1008 213 l 317 213 l 231 0 l 0 0 l 174 429 l 1326 429 l 1153 0 l 922 0 l 1008 213 z "},"i":{"ha":432,"x_min":0,"x_max":621,"o":"m 508 642 l 249 0 l 0 0 l 260 642 l 508 642 m 621 922 l 528 692 l 279 692 l 372 922 l 621 922 z "},"j":{"ha":1349,"x_min":93,"x_max":1525,"o":"m 1153 0 l 461 0 q 225 74 307 7 q 151 147 185 108 q 93 231 118 186 l 319 392 q 439 265 372 304 q 600 231 506 225 l 1015 231 l 1294 922 l 1525 922 l 1153 0 z "},"k":{"ha":1349,"x_min":0,"x_max":1489,"o":"m 514 701 l 603 922 l 372 922 l 193 479 l 931 478 q 1214 586 1028 475 q 1489 833 1400 696 l 1318 922 q 1144 774 1239 835 q 951 700 1046 708 l 514 701 m 317 213 l 758 213 q 888 139 846 204 q 942 -10 933 79 l 1185 79 q 1110 326 1208 219 q 907 429 1014 438 l 174 429 l 0 0 l 231 0 l 317 213 z "},"l":{"ha":1349,"x_min":111,"x_max":1249,"o":"m 371 919 l 182 449 q 186 133 111 265 q 465 0 261 0 l 1156 0 l 1249 231 l 558 231 q 424 293 465 231 q 419 457 385 356 l 606 919 l 371 919 z "},"m":{"ha":1349,"x_min":0,"x_max":1406,"o":"m 514 701 l 744 701 l 461 0 l 692 0 l 975 701 q 1086 626 1043 690 q 1139 476 1131 563 l 946 0 l 1153 0 l 1381 565 q 1307 814 1406 707 q 1209 897 1258 872 q 1110 922 1160 922 l 372 922 l 0 0 l 231 0 l 514 701 z "},"n":{"ha":1349,"x_min":0,"x_max":1432,"o":"m 528 692 l 249 0 l 0 0 l 372 922 l 1064 922 q 1297 847 1217 915 q 1432 692 1386 779 l 1153 0 l 904 0 l 1143 590 q 1086 657 1153 617 q 947 693 1018 693 l 925 692 l 528 692 z "},"o":{"ha":1349,"x_min":93,"x_max":1432,"o":"m 488 590 l 392 356 q 439 264 372 306 q 600 231 513 224 l 739 231 q 928 264 822 225 q 1047 356 1029 306 l 1143 590 q 1086 657 1153 617 q 925 692 1013 697 l 786 692 q 597 657 704 697 q 488 590 499 618 m 692 0 l 461 0 q 225 74 307 7 q 151 147 185 108 q 93 231 118 186 l 279 692 q 401 774 338 735 q 538 847 465 813 q 833 922 679 915 l 1064 922 q 1297 847 1217 915 q 1432 692 1386 779 l 1246 231 q 985 74 1128 142 q 692 0 850 7 z "},"p":{"ha":1349,"x_min":0,"x_max":1432,"o":"m 388 231 l 481 461 l 1094 461 l 1132 554 q 1086 657 1153 617 q 925 692 1013 697 l 510 692 l 231 0 l 0 0 l 372 922 l 1064 922 q 1297 847 1215 915 q 1432 692 1386 779 l 1246 231 l 388 231 z "},"q":{"ha":1349,"x_min":93,"x_max":1432,"o":"m 488 590 l 392 356 q 439 264 372 306 q 600 231 513 224 l 739 231 q 928 264 822 225 q 1047 356 1029 306 l 1143 590 q 1086 657 1153 617 q 925 692 1013 697 l 786 692 q 597 657 704 697 q 488 590 499 618 m 692 0 l 461 0 q 225 74 307 7 q 151 147 185 108 q 93 231 118 186 l 279 692 q 401 774 338 735 q 538 847 465 813 q 833 922 679 915 l 1064 922 q 1297 847 1217 915 q 1432 692 1386 779 l 1246 231 q 985 74 1128 142 q 692 0 850 7 m 535 286 q 676 366 608 318 q 799 493 743 414 l 913 493 l 1029 493 q 821 286 967 336 l 535 286 z "},"r":{"ha":1349,"x_min":0,"x_max":1432,"o":"m 1260 264 l 1113 264 q 1218 161 1169 250 l 992 0 q 881 146 944 79 q 683 231 826 204 l 388 231 l 481 461 l 1094 461 l 1126 539 q 1086 657 1153 617 q 925 692 1013 697 l 510 692 l 231 0 l 0 0 l 372 922 l 1064 922 q 1297 847 1215 915 q 1432 692 1386 779 l 1260 264 z "},"s":{"ha":1349,"x_min":0,"x_max":1525,"o":"m 1386 576 l 1246 231 q 985 74 1128 142 q 692 0 850 7 l 0 0 l 93 231 l 739 231 q 928 264 822 225 q 1051 356 1029 306 l 143 356 l 279 692 q 401 774 338 735 q 538 847 465 813 q 833 922 679 915 l 1525 922 l 1432 692 l 786 692 q 597 657 704 697 q 482 576 497 617 l 1386 576 z "},"t":{"ha":1349,"x_min":235,"x_max":1432,"o":"m 742 696 l 461 0 l 692 0 l 972 696 q 1069 669 1021 696 q 1108 649 1094 656 q 1121 642 1121 642 l 1094 576 l 1386 576 l 1432 692 q 1297 847 1386 779 q 1064 922 1217 915 l 833 922 q 538 847 679 915 q 401 774 465 813 q 279 692 338 735 l 235 581 l 518 581 l 540 636 q 622 668 549 642 q 742 696 699 696 z "},"u":{"ha":1349,"x_min":93,"x_max":1525,"o":"m 621 922 l 392 356 q 439 264 372 306 q 600 231 513 224 l 739 231 q 928 264 822 225 q 1047 356 1029 306 l 1276 922 l 1525 922 l 1246 231 q 985 74 1128 142 q 692 0 850 7 l 461 0 q 225 74 307 7 q 151 147 185 108 q 93 231 118 186 l 372 922 l 621 922 z "},"v":{"ha":1349,"x_min":279,"x_max":1525,"o":"m 669 232 l 533 650 l 283 650 l 489 0 l 663 0 l 1432 692 l 1525 922 l 1256 922 l 1160 685 l 669 232 m 621 922 l 372 922 l 279 692 l 528 692 l 621 922 z "},"w":{"ha":1349,"x_min":0,"x_max":1525,"o":"m 321 222 l 551 222 l 833 922 l 1064 922 l 782 224 q 953 299 857 233 q 1126 447 1047 360 l 1318 922 l 1525 922 l 1297 358 q 1185 228 1253 290 q 1022 111 1118 167 q 738 0 833 0 l 0 0 l 372 922 l 603 922 l 321 222 z "},"x":{"ha":1349,"x_min":29,"x_max":1489,"o":"m 951 700 l 767 700 q 632 774 681 708 q 581 922 588 835 l 336 833 q 411 586 313 697 q 608 478 510 475 l 931 478 q 1214 586 1028 475 q 1377 703 1310 642 q 1489 833 1444 765 l 1318 922 q 1144 774 1239 835 q 951 700 1046 708 m 564 204 l 751 204 q 888 135 839 197 q 943 -10 935 75 l 1183 75 q 1108 319 1207 211 q 910 422 1008 429 l 583 422 q 301 319 490 428 q 29 75 115 213 l 201 -10 q 372 135 276 71 q 564 204 469 197 z "},"y":{"ha":1349,"x_min":0,"x_max":1525,"o":"m 799 588 l 1129 453 l 1318 922 l 1525 922 l 1294 350 q 1018 101 1206 213 q 733 0 836 -8 l 0 0 l 88 217 l 760 217 q 913 265 846 225 l 619 382 q 469 510 524 439 l 317 772 l 546 935 l 639 775 l 686 696 q 735 638 708 665 q 799 588 763 611 z "},"z":{"ha":1349,"x_min":93,"x_max":1432,"o":"m 233 576 l 93 231 q 151 147 118 186 q 225 74 185 108 q 461 0 307 7 l 1153 0 l 1246 231 l 600 231 q 439 264 513 224 q 388 356 372 306 l 1296 356 l 1432 692 q 1297 847 1386 779 q 1064 922 1217 915 l 372 922 l 279 692 l 925 692 q 1086 657 1013 697 q 1138 576 1153 618 l 233 576 z "},"{":{"ha":689,"x_min":93,"x_max":879,"o":"m 440 475 l 392 356 q 439 265 372 306 q 504 238 468 246 q 579 229 540 229 l 600 231 l 507 0 l 461 0 q 225 74 307 7 q 151 147 185 108 q 93 231 118 186 l 279 692 q 403 774 338 733 q 538 848 468 815 q 683 901 608 881 q 833 922 757 922 l 879 922 l 786 692 l 767 693 q 683 684 725 693 q 597 657 642 675 q 488 590 499 618 l 440 475 z "},"|":{"ha":432,"x_min":-51,"x_max":674,"o":"m 197 -128 l 674 1051 l 425 1051 l -51 -128 l 197 -128 z "},"}":{"ha":689,"x_min":0,"x_max":786,"o":"m 450 475 l 401 356 q 282 265 381 304 q 114 229 190 229 l 93 231 l 0 0 l 46 0 q 340 74 206 7 q 476 147 414 108 q 600 231 539 185 l 786 692 q 731 774 763 732 q 655 849 699 815 q 553 902 611 882 q 418 922 494 922 l 372 922 l 279 692 l 301 693 q 440 657 372 693 q 497 590 507 617 l 450 475 z "},"~":{"ha":839,"x_min":156,"x_max":882,"o":"m 358 596 l 156 386 l 318 386 l 415 478 l 432 388 l 668 388 l 882 599 l 707 599 l 599 497 l 576 596 l 358 596 z "},"€":{"ha":1349,"x_min":0,"x_max":1246,"o":"m 1153 0 l 0 0 l 93 231 l 861 922 l 1035 922 l 1246 231 l 1153 0 z "},"‚":{"ha":425,"x_min":-135,"x_max":338,"o":"m -135 -147 q 8 21 -14 -22 l 93 231 l 338 231 l 253 19 q 107 -147 236 -25 l -135 -147 z "},"ƒ":{"ha":1349,"x_min":-282,"x_max":1525,"o":"m 1100 586 l 1007 356 l 392 356 l 249 0 l -32 -228 l -282 -228 l 0 0 l 279 692 q 401 774 338 735 q 538 847 465 813 q 833 922 679 915 l 1525 922 l 1432 692 l 786 692 q 597 657 704 697 q 483 586 499 618 l 1100 586 z "},"„":{"ha":793,"x_min":-133,"x_max":706,"o":"m 233 -147 q 376 21 354 -22 l 461 231 l 706 231 l 621 19 q 475 -147 604 -25 l 233 -147 m -133 -146 q -39 -42 -75 -83 q 8 22 -3 0 l 93 232 l 338 232 l 253 21 q 209 -42 246 -1 q 108 -146 172 -83 l -133 -146 z "},"…":{"ha":1246,"x_min":0,"x_max":1128,"o":"m 249 0 l 0 0 l 93 231 l 342 231 l 249 0 m 638 0 l 389 0 l 482 231 l 731 231 l 638 0 m 1035 0 l 786 0 l 879 231 l 1128 231 l 1035 0 z "},"†":{"ha":754,"x_min":165,"x_max":872,"o":"m 199 493 l 364 493 l 165 0 l 415 0 l 614 493 l 779 493 l 872 722 l 707 722 l 788 922 l 538 922 l 457 722 l 292 722 l 199 493 z "},"‡":{"ha":754,"x_min":72,"x_max":872,"o":"m 199 493 l 364 493 l 331 410 l 164 410 l 72 181 l 239 181 l 165 0 l 415 0 l 489 181 l 653 181 l 744 410 l 581 410 l 614 493 l 779 493 l 872 722 l 707 722 l 788 922 l 538 922 l 457 722 l 292 722 l 199 493 z "},"ˆ":{"ha":833,"x_min":396,"x_max":1033,"o":"m 643 1190 l 396 981 l 619 981 l 767 1110 l 796 982 l 1033 982 l 964 1190 l 643 1190 z "},"‰":{"ha":2240,"x_min":125,"x_max":2201,"o":"m 381 0 l 125 0 l 1389 919 l 1657 919 l 381 0 m 428 754 l 381 638 q 404 592 372 611 q 442 577 422 582 q 485 575 461 572 l 554 575 q 601 577 578 572 q 649 592 624 582 q 708 638 700 613 l 756 754 q 728 788 761 768 q 647 806 697 808 l 578 806 q 483 788 531 808 q 428 754 435 769 m 532 460 l 417 460 q 297 496 340 461 q 232 575 258 533 l 325 806 q 454 883 386 850 q 603 921 522 917 l 718 921 q 835 883 790 917 q 874 847 857 865 q 901 806 890 828 l 808 575 q 746 533 778 551 q 678 496 714 514 q 532 460 610 463 m 1074 300 l 1026 183 q 1050 138 1017 158 q 1088 123 1068 128 q 1131 121 1107 118 l 1200 121 q 1247 123 1224 118 q 1294 138 1269 128 q 1354 183 1343 158 l 1401 300 q 1374 333 1407 314 q 1293 351 1343 354 l 1224 351 q 1129 333 1176 354 q 1074 300 1081 315 m 1178 6 l 1063 6 q 943 42 986 7 q 878 121 904 79 l 971 351 q 1100 429 1032 396 q 1249 467 1168 463 l 1364 467 q 1481 429 1436 463 q 1519 392 1503 411 q 1547 351 1536 374 l 1454 121 q 1392 78 1424 97 q 1324 42 1360 60 q 1178 6 1256 8 m 1728 294 l 1681 178 q 1703 132 1669 153 q 1742 117 1722 122 q 1785 115 1761 113 l 1854 115 q 1900 117 1876 113 q 1947 132 1924 122 q 2008 178 1999 153 l 2056 294 q 2026 328 2060 310 q 1947 346 1996 349 l 1878 346 q 1782 328 1828 349 q 1728 294 1732 308 m 1831 0 l 1715 0 q 1597 36 1638 1 q 1532 115 1556 72 l 1625 346 q 1753 424 1685 390 q 1901 461 1822 457 l 2017 461 q 2133 424 2092 457 q 2173 387 2156 406 q 2201 346 2190 368 l 2108 115 q 2044 73 2076 92 q 1978 36 2013 54 q 1831 0 1907 1 z "},"Š":{"ha":1349,"x_min":0,"x_max":1525,"o":"m 1386 576 l 482 576 q 597 657 497 617 q 683 684 642 675 q 767 693 725 693 l 786 692 l 1432 692 l 1525 922 l 833 922 q 538 847 679 915 q 404 774 468 813 q 279 692 340 736 l 143 356 l 1051 356 q 928 265 1026 304 q 760 229 836 229 l 739 231 l 93 231 l 0 0 l 692 0 q 985 74 850 6 q 1246 231 1128 142 l 1386 576 m 824 996 l 1144 996 l 1382 1207 l 1144 1207 l 1011 1076 l 968 1204 l 744 1204 l 824 996 z "},"‹":{"ha":418,"x_min":126,"x_max":533,"o":"m 256 613 l 126 292 l 275 138 l 372 378 l 278 457 l 444 553 l 533 775 l 256 613 z "},"Œ":{"ha":2240,"x_min":93,"x_max":2433,"o":"m 2010 588 l 1393 588 q 1506 657 1406 618 q 1592 684 1550 675 q 1675 693 1633 693 l 1694 692 l 2340 692 l 2433 922 l 1742 922 q 1622 909 1679 922 q 1506 874 1564 896 l 1525 922 l 833 922 q 683 901 757 922 q 538 848 608 881 q 403 774 468 815 q 279 692 338 733 l 93 231 q 151 147 118 186 q 225 74 185 108 q 461 0 307 7 l 1153 0 l 1172 47 q 1369 0 1242 4 l 2061 0 l 2154 231 l 1508 231 l 1488 229 q 1413 238 1449 229 q 1347 265 1376 246 q 1300 356 1281 306 l 1915 356 l 2010 588 m 392 356 l 488 590 q 597 657 499 618 q 683 684 642 675 q 767 693 725 693 l 786 692 l 1188 692 l 1001 231 l 600 231 l 579 229 q 504 238 540 229 q 439 265 468 246 q 392 356 372 306 z "},"Ž":{"ha":1349,"x_min":93,"x_max":1432,"o":"m 233 576 l 93 231 q 151 147 118 186 q 225 74 185 108 q 461 0 307 7 l 1153 0 l 1246 231 l 600 231 q 439 264 513 224 q 388 356 372 306 l 1296 356 l 1432 692 q 1297 847 1386 779 q 1064 922 1217 915 l 372 922 l 279 692 l 925 692 q 1086 657 1013 697 q 1138 576 1153 618 l 233 576 m 804 996 l 1125 996 l 1364 1207 l 1125 1207 l 990 1082 l 949 1204 l 726 1204 l 804 996 z "},"‘":{"ha":503,"x_min":219,"x_max":692,"o":"m 692 922 q 549 754 571 801 l 464 544 l 219 544 l 306 756 q 450 922 319 799 l 692 922 z "},"’":{"ha":503,"x_min":219,"x_max":692,"o":"m 219 544 q 363 713 343 668 l 447 922 l 692 922 l 607 711 q 461 544 590 667 l 219 544 z "},"“":{"ha":849,"x_min":221,"x_max":1039,"o":"m 693 922 q 550 754 572 801 l 465 544 l 221 544 l 307 756 q 451 922 324 804 l 693 922 m 1039 922 q 896 754 918 801 l 811 544 l 567 544 l 653 756 q 797 922 667 799 l 1039 922 z "},"”":{"ha":849,"x_min":219,"x_max":1038,"o":"m 565 544 q 708 713 689 668 l 793 922 l 1038 922 l 953 711 q 908 644 943 686 q 807 544 872 603 l 565 544 m 219 544 q 363 713 343 668 l 447 922 l 692 922 l 607 711 q 461 544 590 667 l 219 544 z "},"•":{"ha":1349,"x_min":93,"x_max":1432,"o":"m 558 0 l 692 0 q 985 74 850 6 q 1246 231 1128 142 l 1432 692 q 1297 847 1386 779 q 1064 922 1215 915 l 833 922 q 538 847 679 915 q 404 774 468 813 q 279 692 340 736 l 93 231 q 151 147 118 186 q 225 74 185 108 q 461 0 307 7 l 558 0 z "},"–":{"ha":749,"x_min":143,"x_max":806,"o":"m 238 588 l 806 588 l 711 356 l 143 356 l 238 588 z "},"—":{"ha":976,"x_min":143,"x_max":1035,"o":"m 239 590 l 1035 590 l 939 356 l 143 356 l 239 590 z "},"˜":{"ha":839,"x_min":396,"x_max":1122,"o":"m 599 1189 l 396 979 l 558 979 l 656 1071 l 671 981 l 907 981 l 1122 1192 l 947 1192 l 838 1090 l 817 1189 l 599 1189 z "},"™":{"ha":1344,"x_min":372,"x_max":1572,"o":"m 625 971 q 565 957 597 971 q 525 942 526 943 l 514 914 l 372 914 l 394 969 q 524 1047 453 1013 q 672 1085 592 1081 l 788 1085 q 904 1047 860 1081 q 971 969 949 1011 l 947 911 l 801 911 l 815 944 q 789 958 808 944 q 740 971 761 971 l 600 624 l 485 624 l 625 971 m 1126 974 l 985 624 l 869 624 l 1056 1083 l 1426 1083 q 1524 1031 1475 1083 q 1560 906 1572 976 l 1446 624 l 1342 624 l 1438 861 q 1430 901 1435 882 q 1411 936 1425 921 q 1357 974 1390 969 l 1215 624 l 1100 624 l 1242 974 l 1126 974 z "},"š":{"ha":1349,"x_min":0,"x_max":1525,"o":"m 1386 576 l 482 576 q 597 657 497 617 q 683 684 642 675 q 767 693 725 693 l 786 692 l 1432 692 l 1525 922 l 833 922 q 538 847 679 915 q 404 774 468 813 q 279 692 340 736 l 143 356 l 1051 356 q 928 265 1026 304 q 760 229 836 229 l 739 231 l 93 231 l 0 0 l 692 0 q 985 74 850 6 q 1246 231 1128 142 l 1386 576 m 824 996 l 1144 996 l 1382 1207 l 1144 1207 l 1011 1076 l 968 1204 l 744 1204 l 824 996 z "},"›":{"ha":418,"x_min":67,"x_max":469,"o":"m 469 613 l 340 292 l 67 138 l 164 378 l 322 457 l 233 553 l 322 775 l 469 613 z "},"œ":{"ha":2240,"x_min":93,"x_max":2433,"o":"m 2010 588 l 1393 588 q 1506 657 1406 618 q 1592 684 1550 675 q 1675 693 1633 693 l 1694 692 l 2340 692 l 2433 922 l 1742 922 q 1622 909 1679 922 q 1506 874 1564 896 l 1525 922 l 833 922 q 683 901 757 922 q 538 848 608 881 q 403 774 468 815 q 279 692 338 733 l 93 231 q 151 147 118 186 q 225 74 185 108 q 461 0 307 7 l 1153 0 l 1172 47 q 1369 0 1242 4 l 2061 0 l 2154 231 l 1508 231 l 1488 229 q 1413 238 1449 229 q 1347 265 1376 246 q 1300 356 1281 306 l 1915 356 l 2010 588 m 392 356 l 488 590 q 597 657 499 618 q 683 684 642 675 q 767 693 725 693 l 786 692 l 1188 692 l 1001 231 l 600 231 l 579 229 q 504 238 540 229 q 439 265 468 246 q 392 356 372 306 z "},"ž":{"ha":1349,"x_min":93,"x_max":1432,"o":"m 233 576 l 93 231 q 151 147 118 186 q 225 74 185 108 q 461 0 307 7 l 1153 0 l 1246 231 l 600 231 q 439 264 513 224 q 388 356 372 306 l 1296 356 l 1432 692 q 1297 847 1386 779 q 1064 922 1217 915 l 372 922 l 279 692 l 925 692 q 1086 657 1013 697 q 1138 576 1153 618 l 233 576 m 804 996 l 1125 996 l 1364 1207 l 1125 1207 l 990 1082 l 949 1204 l 726 1204 l 804 996 z "},"Ÿ":{"ha":1349,"x_min":0,"x_max":1525,"o":"m 799 588 l 1129 453 l 1318 922 l 1525 922 l 1294 350 q 1018 101 1206 213 q 733 0 836 -8 l 0 0 l 88 217 l 760 217 q 913 265 846 225 l 619 382 q 469 510 524 439 l 317 772 l 546 935 l 639 775 l 686 696 q 735 638 708 665 q 799 588 763 611 m 746 1207 l 990 1207 l 904 994 l 660 994 l 746 1207 m 1382 1207 l 1296 994 l 1051 994 l 1138 1207 l 1382 1207 z "}," ":{"ha":657,"x_min":0,"x_max":0,"o":""},"¡":{"ha":432,"x_min":-1,"x_max":619,"o":"m 258 642 l -1 0 l 247 0 l 507 642 l 258 642 m 371 922 l 278 692 l 526 692 l 619 922 l 371 922 z "},"¢":{"ha":1349,"x_min":93,"x_max":1525,"o":"m 761 -131 l 814 0 l 1153 0 l 1246 231 l 907 231 l 1093 692 l 1432 692 l 1525 922 l 1186 922 l 1238 1049 l 989 1049 l 938 922 l 833 922 q 538 847 679 915 q 401 774 465 813 q 279 692 338 735 l 93 231 q 151 147 118 186 q 225 74 185 108 q 461 0 307 7 l 565 0 l 513 -131 l 761 -131 m 488 590 q 597 657 499 618 q 786 692 704 697 l 844 692 l 658 231 l 600 231 q 439 264 513 224 q 392 356 372 306 l 488 590 z "},"£":{"ha":1510,"x_min":117,"x_max":1686,"o":"m 253 625 l 192 475 l 353 475 l 339 439 l 178 439 l 117 289 l 278 289 l 254 231 q 313 147 279 186 q 386 74 346 108 q 622 0 468 7 l 1314 0 l 1407 231 l 761 231 l 740 229 q 665 238 701 229 q 600 265 629 246 q 583 276 590 271 q 568 289 575 282 l 1165 289 l 1226 439 l 588 439 l 601 475 l 1240 475 l 1301 625 l 689 625 q 719 640 704 632 q 758 657 735 649 q 844 684 803 675 q 928 693 886 693 l 947 692 l 1593 692 l 1686 922 l 994 922 q 844 901 918 922 q 699 848 769 881 q 564 774 629 815 q 440 692 499 733 l 414 625 l 253 625 z "},"¤":{"ha":1349,"x_min":29,"x_max":1489,"o":"m 375 454 q 350 347 350 393 q 326 333 338 340 q 301 319 314 326 q 29 75 115 213 l 201 -10 q 372 135 276 71 q 432 168 403 154 q 624 111 504 111 q 741 125 682 111 q 857 165 800 139 q 872 151 865 158 q 888 135 879 143 q 943 -10 935 75 l 1183 75 q 1108 319 1207 211 q 1097 331 1103 326 q 1085 342 1090 336 q 1151 454 1126 393 q 1175 564 1175 513 q 1194 574 1185 569 q 1214 586 1204 579 q 1377 703 1310 642 q 1489 833 1444 765 l 1318 922 q 1144 774 1239 835 q 1115 755 1128 763 q 1090 742 1101 747 q 1007 783 1054 768 q 901 797 960 797 q 663 739 779 797 q 647 754 654 746 q 632 774 639 763 q 581 922 588 835 l 336 833 q 411 586 313 697 q 424 573 418 579 q 436 560 431 567 q 401 508 417 535 q 375 454 386 482 m 582 454 q 622 517 596 488 q 683 568 649 546 q 756 603 717 590 q 833 615 794 615 q 901 603 872 615 q 947 568 931 590 q 967 517 964 546 q 956 454 969 488 q 915 392 942 421 q 855 340 889 363 q 781 306 821 318 q 703 293 742 293 q 635 306 664 293 q 590 340 606 318 q 571 392 574 363 q 582 454 568 421 z "},"¥":{"ha":1621,"x_min":0,"x_max":1711,"o":"m 1090 800 l 996 568 l 1175 568 l 1129 453 l 799 588 q 735 638 763 611 q 686 696 708 665 l 546 935 l 317 772 l 469 510 q 619 382 524 439 l 879 278 l 864 240 q 813 225 838 231 q 760 217 788 219 l 88 217 l 0 0 l 733 0 l 749 0 q 1018 101 853 0 q 1079 140 1050 121 q 1136 181 1108 160 l 1460 181 l 1554 415 l 1321 415 l 1382 568 l 1615 568 l 1711 803 l 1478 803 l 1525 922 l 1318 922 l 1269 800 l 1090 800 z "},"¦":{"ha":432,"x_min":-51,"x_max":674,"o":"m 197 -128 l 674 1051 l 425 1051 l -51 -128 l 197 -128 z "},"§":{"ha":1349,"x_min":0,"x_max":1525,"o":"m 1386 576 l 1107 576 q 1015 692 1090 651 l 1432 692 l 1525 922 l 833 922 q 538 847 679 915 q 401 774 465 813 q 279 692 338 735 l 143 356 l 435 356 q 542 231 451 271 l 93 231 l 0 0 l 692 0 q 985 74 850 7 q 1246 231 1128 142 l 1386 576 m 697 686 q 526 576 596 646 l 482 576 q 597 657 497 617 q 697 686 644 678 m 1018 356 l 1051 356 q 928 264 1029 306 q 826 235 876 243 q 931 285 882 254 q 1018 356 981 317 m 614 463 q 646 512 624 489 q 697 552 668 535 q 759 579 725 569 q 826 589 793 589 q 885 579 860 589 q 927 552 911 569 q 947 512 943 535 q 940 463 950 489 q 907 413 929 436 q 856 374 885 390 q 792 347 826 357 q 725 338 758 338 q 666 347 692 338 q 625 374 640 357 q 606 413 610 390 q 614 463 603 436 z "},"¨":{"ha":831,"x_min":399,"x_max":1121,"o":"m 1121 1199 l 876 1199 l 790 986 l 1035 986 l 1121 1199 m 485 1199 l 399 986 l 643 986 l 729 1199 l 485 1199 z "},"©":{"ha":1349,"x_min":93,"x_max":1432,"o":"m 392 356 l 488 590 q 597 657 499 618 q 786 692 704 697 l 925 692 q 1086 657 1013 697 q 1143 590 1153 617 l 1047 356 q 928 264 1029 306 q 739 231 828 225 l 600 231 q 439 264 513 224 q 392 356 372 306 m 558 0 l 692 0 q 985 74 850 6 q 1246 231 1128 142 l 1432 692 q 1297 847 1386 779 q 1064 922 1215 915 l 833 922 q 538 847 679 915 q 404 774 468 813 q 279 692 340 736 l 93 231 q 151 147 118 186 q 225 74 185 108 q 461 0 307 7 l 558 0 m 631 508 q 671 533 635 519 q 742 546 708 547 l 981 546 l 1015 632 l 760 632 q 650 604 704 631 q 599 576 622 590 q 554 546 576 563 l 485 375 q 506 345 494 360 q 535 318 518 331 q 571 298 549 304 q 621 290 593 292 l 876 290 l 911 375 l 672 375 q 613 388 640 372 q 595 403 600 396 q 596 422 590 411 l 631 508 z "},"ª":{"ha":717,"x_min":254,"x_max":878,"o":"m 743 740 l 681 967 l 429 740 l 743 740 m 831 622 l 254 622 l 301 738 l 685 1083 l 771 1083 l 878 738 l 831 622 z "},"«":{"ha":800,"x_min":126,"x_max":911,"o":"m 256 613 l 126 292 l 275 138 l 372 378 l 278 457 l 444 553 l 533 775 l 256 613 m 633 613 l 504 292 l 653 138 l 750 378 l 656 457 l 822 553 l 911 775 l 633 613 z "},"¬":{"ha":976,"x_min":143,"x_max":1033,"o":"m 849 133 l 1033 590 l 239 590 l 143 356 l 689 356 l 600 133 l 849 133 z "},"­":{"ha":606,"x_min":143,"x_max":663,"o":"m 238 589 l 663 589 l 568 356 l 143 356 l 238 589 z "},"®":{"ha":1349,"x_min":93,"x_max":1432,"o":"m 392 356 l 488 590 q 597 657 499 618 q 786 692 704 697 l 925 692 q 1086 657 1013 697 q 1143 590 1153 617 l 1047 356 q 928 264 1029 306 q 739 231 828 225 l 600 231 q 439 264 513 224 q 392 356 372 306 m 558 0 l 692 0 q 985 74 850 6 q 1246 231 1128 142 l 1432 692 q 1297 847 1386 779 q 1064 922 1215 915 l 833 922 q 538 847 679 915 q 404 774 468 813 q 279 692 340 736 l 93 231 q 151 147 118 186 q 225 74 185 108 q 461 0 307 7 l 558 0 m 1026 551 q 1006 582 1018 568 q 978 610 993 596 q 890 638 946 636 l 635 638 l 497 296 l 582 296 l 685 551 l 839 551 q 900 539 875 554 q 914 496 924 524 l 903 467 l 675 467 l 640 381 l 750 381 q 824 350 801 372 q 864 296 846 325 l 924 296 l 947 356 q 908 393 928 389 l 963 393 l 1026 551 z "},"¯":{"ha":1299,"x_min":436,"x_max":1865,"o":"m 529 1325 l 1865 1325 l 1772 1094 l 436 1094 l 529 1325 z "},"°":{"ha":690,"x_min":303,"x_max":972,"o":"m 451 804 l 499 921 q 554 954 506 936 q 649 972 600 975 l 718 972 q 799 954 768 975 q 826 921 832 935 l 779 804 q 719 758 768 779 q 672 744 694 749 q 625 742 649 739 l 556 742 q 513 744 532 739 q 475 758 493 749 q 451 804 442 779 m 535 626 l 601 626 q 749 663 678 628 q 816 699 785 681 q 879 742 847 718 l 972 972 q 904 1050 950 1014 q 788 1088 863 1083 l 672 1088 q 524 1050 594 1083 q 396 972 454 1015 l 303 742 q 332 700 315 719 q 368 663 349 681 q 486 626 408 629 l 535 626 z "},"±":{"ha":749,"x_min":-1,"x_max":851,"o":"m 751 869 l 519 869 l 451 703 l 283 703 l 190 471 l 358 471 l 290 301 l 522 301 l 590 471 l 758 471 l 851 703 l 683 703 l 751 869 m -1 0 l 567 0 l 660 232 l 92 232 l -1 0 z "},"²":{"ha":719,"x_min":251,"x_max":968,"o":"m 368 910 l 251 622 l 828 622 l 875 738 l 421 738 l 446 800 l 900 800 l 968 968 q 940 1009 957 990 q 900 1046 922 1028 q 783 1083 858 1079 l 438 1083 l 392 968 l 714 968 q 793 950 763 971 q 819 910 828 932 l 368 910 z "},"³":{"ha":706,"x_min":251,"x_max":968,"o":"m 514 917 l 467 801 l 775 801 q 715 756 764 776 q 667 741 690 746 q 621 739 644 736 l 299 739 l 251 624 l 597 624 q 744 660 674 625 q 813 697 781 678 q 875 739 844 715 l 968 969 q 901 1047 946 1011 q 785 1085 857 1081 l 439 1085 l 392 969 l 714 969 q 794 951 764 972 q 824 917 829 933 l 514 917 z "},"´":{"ha":596,"x_min":400,"x_max":893,"o":"m 400 993 l 672 993 q 893 1201 831 1044 l 664 1201 q 541 1074 608 1122 q 400 993 474 1026 z "},"µ":{"ha":1349,"x_min":-79,"x_max":1525,"o":"m 171 -196 l 268 44 q 461 0 349 4 l 692 0 q 985 74 850 7 q 1246 231 1128 142 l 1525 922 l 1276 922 l 1047 356 q 928 264 1029 306 q 739 231 822 225 l 600 231 q 439 264 513 224 q 392 356 372 306 l 621 922 l 372 922 l -79 -196 l 171 -196 z "},"¶":{"ha":1349,"x_min":107,"x_max":1525,"o":"m 107 264 l 357 264 l 250 0 l 496 0 l 776 694 l 1204 694 l 924 0 l 1153 0 l 1525 922 l 833 922 q 539 847 679 917 q 279 692 396 778 l 107 264 z "},"·":{"ha":429,"x_min":133,"x_max":475,"o":"m 475 560 l 226 560 l 133 329 l 382 329 l 475 560 z "},"¸":{"ha":425,"x_min":-204,"x_max":258,"o":"m -204 -237 q -146 -180 -175 -207 q -92 -131 -117 -153 q -49 -92 -67 -108 q -26 -64 -32 -75 l 14 35 l 258 35 l 218 -65 q 155 -133 207 -90 q 38 -237 103 -175 l -204 -237 z "},"¹":{"ha":692,"x_min":251,"x_max":875,"o":"m 251 622 l 597 622 q 744 658 674 624 q 811 695 779 676 q 875 738 843 714 l 826 818 q 714 754 771 778 q 672 740 690 744 q 644 738 654 735 l 783 1083 l 438 1083 l 392 968 l 622 968 l 529 738 l 299 738 l 251 622 z "},"º":{"ha":690,"x_min":303,"x_max":972,"o":"m 451 804 l 499 921 q 554 954 506 936 q 649 972 600 975 l 718 972 q 799 954 768 975 q 826 921 832 935 l 779 804 q 719 758 768 779 q 672 744 694 749 q 625 742 649 739 l 556 742 q 513 744 532 739 q 475 758 493 749 q 451 804 442 779 m 535 626 l 601 626 q 749 663 678 628 q 816 699 785 681 q 879 742 847 718 l 972 972 q 904 1050 950 1014 q 788 1088 863 1083 l 672 1088 q 524 1050 594 1083 q 396 972 454 1015 l 303 742 q 332 700 315 719 q 368 663 349 681 q 486 626 408 629 l 535 626 z "},"»":{"ha":800,"x_min":67,"x_max":847,"o":"m 847 613 l 718 292 l 444 138 l 542 378 l 700 457 l 611 553 l 700 775 l 847 613 m 469 613 l 340 292 l 67 138 l 164 378 l 322 457 l 233 553 l 322 775 l 469 613 z "},"¼":{"ha":1622,"x_min":125,"x_max":1657,"o":"m 381 0 l 125 0 l 1389 919 l 1657 919 l 381 0 m 535 468 l 189 468 l 236 583 l 467 583 l 560 814 l 329 814 l 375 929 l 721 929 l 582 583 q 610 585 592 581 q 653 600 628 590 q 707 627 679 611 q 764 664 735 643 l 813 583 q 749 541 781 560 q 682 504 718 522 q 535 468 611 469 m 1140 350 l 1486 350 l 1531 461 l 1646 461 l 1556 239 l 979 239 l 1069 461 l 1185 461 l 1140 350 m 1388 106 l 926 106 l 969 214 l 1546 214 l 1460 0 l 1344 0 l 1388 106 z "},"½":{"ha":1622,"x_min":125,"x_max":1657,"o":"m 381 0 l 125 0 l 1389 919 l 1657 919 l 381 0 m 535 468 l 189 468 l 236 583 l 467 583 l 560 814 l 329 814 l 375 929 l 721 929 l 582 583 q 610 585 592 581 q 653 600 628 590 q 707 627 679 611 q 764 664 735 643 l 813 583 q 749 541 781 560 q 682 504 718 522 q 535 468 611 469 m 885 0 l 1001 288 l 1453 288 q 1426 328 1461 310 q 1347 346 1396 349 l 1025 346 l 1071 461 l 1417 461 q 1533 424 1492 457 q 1573 387 1556 406 q 1601 346 1590 368 l 1533 178 l 1079 178 l 1054 115 l 1508 115 l 1461 0 l 885 0 z "},"¾":{"ha":1594,"x_min":97,"x_max":1629,"o":"m 353 0 l 97 0 l 1361 919 l 1629 919 l 353 0 m 1113 350 l 1458 350 l 1503 461 l 1618 461 l 1528 239 l 951 239 l 1042 461 l 1157 461 l 1113 350 m 1360 106 l 899 106 l 942 214 l 1518 214 l 1432 0 l 1317 0 l 1360 106 m 411 646 l 457 761 l 767 761 q 739 796 775 776 q 658 814 708 817 l 336 814 l 382 929 l 728 929 q 844 892 803 925 q 913 814 890 856 l 819 583 q 756 541 788 560 q 689 504 725 522 q 542 468 618 469 l 196 468 l 243 583 l 565 583 q 611 585 588 581 q 660 600 635 590 q 719 646 708 621 l 411 646 z "},"¿":{"ha":1349,"x_min":93,"x_max":1525,"o":"m 1293 346 l 1411 639 l 1167 639 l 1138 567 l 229 567 l 93 231 q 228 75 140 143 q 327 21 268 39 q 461 0 386 3 l 1153 0 l 1246 231 l 600 231 q 440 265 508 225 q 389 346 372 304 l 1293 346 m 1276 922 l 1183 692 l 1432 692 l 1525 922 l 1276 922 z "},"À":{"ha":1349,"x_min":0,"x_max":1246,"o":"m 979 238 l 854 689 l 351 238 l 979 238 m 1153 0 l 0 0 l 93 231 l 861 922 l 1035 922 l 1246 231 l 1153 0 m 1194 999 l 922 999 q 869 1207 807 1051 l 1099 1207 q 1120 1080 1092 1128 q 1194 999 1149 1032 z "},"Á":{"ha":1349,"x_min":0,"x_max":1279,"o":"m 979 238 l 854 689 l 351 238 l 979 238 m 1153 0 l 0 0 l 93 231 l 861 922 l 1035 922 l 1246 231 l 1153 0 m 785 999 q 926 1080 858 1032 q 1050 1207 994 1128 l 1279 1207 q 1058 1001 1215 1049 l 785 999 z "},"Â":{"ha":1349,"x_min":0,"x_max":1301,"o":"m 979 238 l 854 689 l 351 238 l 979 238 m 1153 0 l 0 0 l 93 231 l 861 922 l 1035 922 l 1246 231 l 1153 0 m 911 1204 l 1232 1204 l 1301 994 l 1063 994 l 1033 1119 l 889 996 l 667 996 l 911 1204 z "},"Ã":{"ha":1349,"x_min":0,"x_max":1394,"o":"m 979 238 l 854 689 l 351 238 l 979 238 m 1153 0 l 0 0 l 93 231 l 861 922 l 1035 922 l 1246 231 l 1153 0 m 872 1204 l 1090 1204 l 1113 1106 l 1219 1204 l 1394 1204 l 1182 996 l 963 996 l 929 1086 l 833 996 l 671 996 l 872 1204 z "},"Ä":{"ha":1349,"x_min":0,"x_max":1382,"o":"m 979 238 l 854 689 l 351 238 l 979 238 m 1153 0 l 0 0 l 93 231 l 861 922 l 1035 922 l 1246 231 l 1153 0 m 746 1207 l 990 1207 l 904 994 l 660 994 l 746 1207 m 1382 1207 l 1296 994 l 1051 994 l 1138 1207 l 1382 1207 z "},"Å":{"ha":1349,"x_min":0,"x_max":1246,"o":"m 979 238 l 854 689 l 351 238 l 979 238 m 1153 0 l 0 0 l 93 231 l 861 922 l 1035 922 l 1246 231 l 1153 0 m 1189 1207 l 1103 994 l 858 994 l 944 1207 l 1189 1207 z "},"Æ":{"ha":2261,"x_min":0,"x_max":2411,"o":"m 1988 588 l 1371 588 q 1483 657 1383 618 q 1569 684 1528 675 q 1653 693 1611 693 l 1672 692 l 2318 692 l 2411 922 l 1719 922 q 1569 901 1643 922 q 1424 848 1494 881 q 1289 774 1354 815 q 1165 692 1224 733 l 1132 607 l 1035 922 l 861 922 l 93 231 l 0 0 l 1153 0 l 1168 38 q 1347 0 1239 4 l 2039 0 l 2132 231 l 1486 231 l 1465 229 q 1390 238 1426 229 q 1325 265 1354 246 q 1278 356 1258 306 l 1893 356 l 1988 588 m 979 238 l 351 238 l 854 689 l 979 238 z "},"Ç":{"ha":1349,"x_min":93,"x_max":1525,"o":"m 343 -244 l 585 -244 q 702 -140 650 -182 q 765 -72 754 -97 l 794 0 l 1153 0 l 1246 231 l 600 231 q 439 264 513 224 q 392 356 372 306 l 488 590 q 597 657 499 618 q 786 692 704 697 l 1432 692 l 1525 922 l 833 922 q 538 847 679 915 q 401 774 465 813 q 279 692 338 735 l 93 231 q 151 147 118 186 q 225 74 185 108 q 461 0 307 7 l 550 0 l 521 -71 q 498 -99 515 -82 q 456 -137 481 -115 q 401 -187 431 -160 q 343 -244 372 -214 z "},"È":{"ha":1349,"x_min":93,"x_max":1525,"o":"m 1101 588 l 1007 356 l 392 356 q 439 265 372 306 q 504 238 468 246 q 579 229 540 229 l 600 231 l 1246 231 l 1153 0 l 461 0 q 225 74 307 7 q 151 147 185 108 q 93 231 118 186 l 279 692 q 403 774 338 733 q 538 848 468 815 q 683 901 608 881 q 833 922 757 922 l 1525 922 l 1432 692 l 786 692 l 767 693 q 683 684 725 693 q 597 657 642 675 q 485 588 497 618 l 1101 588 m 1194 999 l 922 999 q 869 1207 807 1051 l 1099 1207 q 1120 1080 1092 1128 q 1194 999 1149 1032 z "},"É":{"ha":1349,"x_min":93,"x_max":1525,"o":"m 1101 588 l 1007 356 l 392 356 q 439 265 372 306 q 504 238 468 246 q 579 229 540 229 l 600 231 l 1246 231 l 1153 0 l 461 0 q 225 74 307 7 q 151 147 185 108 q 93 231 118 186 l 279 692 q 403 774 338 733 q 538 848 468 815 q 683 901 608 881 q 833 922 757 922 l 1525 922 l 1432 692 l 786 692 l 767 693 q 683 684 725 693 q 597 657 642 675 q 485 588 497 618 l 1101 588 m 840 999 q 982 1080 914 1032 q 1106 1207 1050 1128 l 1336 1207 q 1115 999 1271 1046 l 840 999 z "},"Ê":{"ha":1349,"x_min":93,"x_max":1525,"o":"m 1101 588 l 1007 356 l 392 356 q 439 265 372 306 q 504 238 468 246 q 579 229 540 229 l 600 231 l 1246 231 l 1153 0 l 461 0 q 225 74 307 7 q 151 147 185 108 q 93 231 118 186 l 279 692 q 403 774 338 733 q 538 848 468 815 q 683 901 608 881 q 833 922 757 922 l 1525 922 l 1432 692 l 786 692 l 767 693 q 683 684 725 693 q 597 657 642 675 q 485 588 497 618 l 1101 588 m 931 1204 l 1251 1204 l 1319 994 l 1082 994 l 1047 1119 l 908 996 l 685 996 l 931 1204 z "},"Ë":{"ha":1349,"x_min":93,"x_max":1525,"o":"m 1101 588 l 1007 356 l 392 356 q 439 265 372 306 q 504 238 468 246 q 579 229 540 229 l 600 231 l 1246 231 l 1153 0 l 461 0 q 225 74 307 7 q 151 147 185 108 q 93 231 118 186 l 279 692 q 403 774 338 733 q 538 848 468 815 q 683 901 608 881 q 833 922 757 922 l 1525 922 l 1432 692 l 786 692 l 767 693 q 683 684 725 693 q 597 657 642 675 q 485 588 497 618 l 1101 588 m 746 1207 l 990 1207 l 904 994 l 660 994 l 746 1207 m 1382 1207 l 1296 994 l 1051 994 l 1138 1207 l 1382 1207 z "},"Ì":{"ha":432,"x_min":0,"x_max":738,"o":"m 249 0 l 621 922 l 372 922 l 0 0 l 249 0 m 738 999 q 663 1080 692 1032 q 642 1207 635 1128 l 413 1207 q 467 999 347 1046 l 738 999 z "},"Í":{"ha":432,"x_min":0,"x_max":822,"o":"m 249 0 l 621 922 l 372 922 l 0 0 l 249 0 m 328 999 l 600 999 q 822 1207 760 1050 l 593 1207 q 469 1080 538 1128 q 328 999 401 1032 z "},"Î":{"ha":432,"x_min":0,"x_max":844,"o":"m 249 0 l 621 922 l 372 922 l 0 0 l 249 0 m 453 1204 l 207 994 l 429 994 l 575 1119 l 606 996 l 844 996 l 774 1204 l 453 1204 z "},"Ï":{"ha":432,"x_min":0,"x_max":929,"o":"m 249 0 l 0 0 l 372 922 l 621 922 l 249 0 m 293 1207 l 538 1207 l 450 996 l 207 994 l 293 1207 m 596 996 l 685 1207 l 929 1207 l 843 994 l 596 996 z "},"Ð":{"ha":1497,"x_min":144,"x_max":1581,"o":"m 239 590 l 144 358 l 293 358 l 149 0 l 840 0 q 1133 74 999 7 q 1394 231 1276 142 l 1581 692 q 1446 847 1535 779 q 1213 922 1365 915 l 521 922 l 428 692 l 1074 692 q 1235 657 1161 697 q 1292 590 1301 617 l 1196 356 q 1076 264 1178 306 q 888 231 971 225 l 490 231 l 542 358 l 713 358 l 807 590 l 636 590 l 657 642 l 408 642 l 388 590 l 239 590 z "},"Ñ":{"ha":1349,"x_min":0,"x_max":1432,"o":"m 249 0 l 528 692 l 925 692 l 947 693 q 1086 657 1018 693 q 1143 590 1153 617 l 904 0 l 1153 0 l 1432 692 q 1297 847 1386 779 q 1198 902 1253 882 q 1064 922 1143 922 l 372 922 l 0 0 l 249 0 m 872 1204 l 669 994 l 832 994 l 929 1086 l 946 996 l 1182 996 l 1396 1207 l 1221 1207 l 1113 1106 l 1090 1204 l 872 1204 z "},"Ò":{"ha":1349,"x_min":93,"x_max":1432,"o":"m 392 356 l 488 590 q 597 657 499 618 q 786 692 704 697 l 925 692 q 1086 657 1013 697 q 1143 590 1153 617 l 1047 356 q 928 264 1029 306 q 739 231 828 225 l 600 231 q 439 264 513 224 q 392 356 372 306 m 558 0 l 692 0 q 985 74 850 6 q 1246 231 1128 142 l 1432 692 q 1297 847 1386 779 q 1064 922 1215 915 l 833 922 q 538 847 679 915 q 404 774 468 813 q 279 692 340 736 l 93 231 q 151 147 118 186 q 225 74 185 108 q 461 0 307 7 l 558 0 m 1194 999 q 1120 1080 1149 1032 q 1099 1207 1092 1128 l 869 1207 q 924 1001 806 1050 l 1194 999 z "},"Ó":{"ha":1349,"x_min":93,"x_max":1432,"o":"m 392 356 l 488 590 q 597 657 499 618 q 786 692 704 697 l 925 692 q 1086 657 1013 697 q 1143 590 1153 617 l 1047 356 q 928 264 1029 306 q 739 231 828 225 l 600 231 q 439 264 513 224 q 392 356 372 306 m 558 0 l 692 0 q 985 74 850 6 q 1246 231 1128 142 l 1432 692 q 1297 847 1386 779 q 1064 922 1215 915 l 833 922 q 538 847 679 915 q 404 774 468 813 q 279 692 340 736 l 93 231 q 151 147 118 186 q 225 74 185 108 q 461 0 307 7 l 558 0 m 785 999 l 1050 999 q 1279 1207 1217 1050 l 1050 1207 q 926 1080 994 1128 q 785 999 858 1032 z "},"Ô":{"ha":1349,"x_min":93,"x_max":1432,"o":"m 392 356 l 488 590 q 597 657 499 618 q 786 692 704 697 l 925 692 q 1086 657 1013 697 q 1143 590 1153 617 l 1047 356 q 928 264 1029 306 q 739 231 828 225 l 600 231 q 439 264 513 224 q 392 356 372 306 m 558 0 l 692 0 q 985 74 850 6 q 1246 231 1128 142 l 1432 692 q 1297 847 1386 779 q 1064 922 1215 915 l 833 922 q 538 847 679 915 q 404 774 468 813 q 279 692 340 736 l 93 231 q 151 147 118 186 q 225 74 185 108 q 461 0 307 7 l 558 0 m 907 1204 l 660 994 l 883 994 l 1031 1124 l 1060 996 l 1297 996 l 1228 1204 l 907 1204 z "},"Õ":{"ha":1349,"x_min":93,"x_max":1432,"o":"m 392 356 l 488 590 q 597 657 499 618 q 786 692 704 697 l 925 692 q 1086 657 1013 697 q 1143 590 1153 617 l 1047 356 q 928 264 1029 306 q 739 231 828 225 l 600 231 q 439 264 513 224 q 392 356 372 306 m 558 0 l 692 0 q 985 74 850 6 q 1246 231 1128 142 l 1432 692 q 1297 847 1386 779 q 1064 922 1215 915 l 833 922 q 538 847 679 915 q 404 774 468 813 q 279 692 340 736 l 93 231 q 151 147 118 186 q 225 74 185 108 q 461 0 307 7 l 558 0 m 872 1204 l 669 994 l 832 994 l 929 1086 l 946 996 l 1182 996 l 1396 1207 l 1221 1207 l 1113 1106 l 1090 1204 l 872 1204 z "},"Ö":{"ha":1349,"x_min":93,"x_max":1432,"o":"m 392 356 l 488 590 q 597 657 499 618 q 786 692 704 697 l 925 692 q 1086 657 1013 697 q 1143 590 1153 617 l 1047 356 q 928 264 1029 306 q 739 231 828 225 l 600 231 q 439 264 513 224 q 392 356 372 306 m 558 0 l 692 0 q 985 74 850 6 q 1246 231 1128 142 l 1432 692 q 1297 847 1386 779 q 1064 922 1215 915 l 833 922 q 538 847 679 915 q 404 774 468 813 q 279 692 340 736 l 93 231 q 151 147 118 186 q 225 74 185 108 q 461 0 307 7 l 558 0 m 1382 1207 l 1138 1207 l 1051 994 l 1296 994 l 1382 1207 m 746 1207 l 660 994 l 904 994 l 990 1207 l 746 1207 z "},"×":{"ha":1003,"x_min":65,"x_max":1161,"o":"m 758 636 l 619 636 q 518 692 553 642 q 481 803 485 738 l 297 736 q 353 550 279 636 q 501 469 425 468 l 743 469 q 956 550 817 467 q 1077 638 1026 592 q 1161 736 1128 685 l 1035 803 q 903 692 976 740 q 758 636 831 643 m 468 264 l 608 264 q 711 213 674 260 q 751 104 746 161 l 931 167 q 876 350 949 268 q 726 428 799 432 l 482 428 q 271 350 415 432 q 65 167 129 268 l 196 104 q 325 213 246 160 q 468 264 394 260 z "},"Ø":{"ha":1349,"x_min":93,"x_max":1432,"o":"m 692 0 q 985 74 850 7 q 1246 231 1128 142 l 1432 692 q 1297 847 1386 779 q 1064 922 1217 915 l 833 922 q 538 847 679 915 q 401 774 465 813 q 279 692 338 735 l 93 231 q 151 147 118 186 q 225 74 185 108 q 461 0 307 7 l 692 0 m 1122 631 q 1143 590 1150 607 l 1047 356 q 928 264 1029 306 q 739 231 822 225 l 600 231 q 579 229 597 229 l 1122 631 m 488 590 q 597 657 499 618 q 786 692 704 697 l 925 692 l 939 692 l 404 292 q 392 356 379 321 l 488 590 z "},"Ù":{"ha":1349,"x_min":93,"x_max":1525,"o":"m 621 922 l 392 356 q 439 264 372 306 q 600 231 513 224 l 739 231 q 928 264 822 225 q 1047 356 1029 306 l 1276 922 l 1525 922 l 1246 231 q 985 74 1128 142 q 692 0 850 7 l 461 0 q 225 74 307 7 q 151 147 185 108 q 93 231 118 186 l 372 922 l 621 922 m 1194 999 l 924 1001 q 869 1207 806 1050 l 1099 1207 q 1120 1080 1092 1128 q 1194 999 1149 1032 z "},"Ú":{"ha":1349,"x_min":93,"x_max":1525,"o":"m 621 922 l 392 356 q 439 264 372 306 q 600 231 513 224 l 739 231 q 928 264 822 225 q 1047 356 1029 306 l 1276 922 l 1525 922 l 1246 231 q 985 74 1128 142 q 692 0 850 7 l 461 0 q 225 74 307 7 q 151 147 185 108 q 93 231 118 186 l 372 922 l 621 922 m 785 999 q 926 1080 858 1032 q 1050 1207 994 1128 l 1279 1207 q 1058 1001 1215 1049 l 785 999 z "},"Û":{"ha":1349,"x_min":93,"x_max":1525,"o":"m 621 922 l 392 356 q 439 264 372 306 q 600 231 513 224 l 739 231 q 928 264 822 225 q 1047 356 1029 306 l 1276 922 l 1525 922 l 1246 231 q 985 74 1128 142 q 692 0 850 7 l 461 0 q 225 74 307 7 q 151 147 185 108 q 93 231 118 186 l 372 922 l 621 922 m 907 1204 l 1228 1204 l 1296 994 l 1060 996 l 1029 1119 l 885 996 l 660 994 l 907 1204 z "},"Ü":{"ha":1349,"x_min":93,"x_max":1525,"o":"m 621 922 l 392 356 q 439 264 372 306 q 600 231 513 224 l 739 231 q 928 264 822 225 q 1047 356 1029 306 l 1276 922 l 1525 922 l 1246 231 q 985 74 1128 142 q 692 0 850 7 l 461 0 q 225 74 307 7 q 151 147 185 108 q 93 231 118 186 l 372 922 l 621 922 m 1382 1207 l 1296 994 l 1051 994 l 1138 1207 l 1382 1207 m 742 1207 l 986 1207 l 900 994 l 656 994 l 742 1207 z "},"Ý":{"ha":1349,"x_min":0,"x_max":1525,"o":"m 799 588 l 1129 453 l 1318 922 l 1525 922 l 1294 350 q 1018 101 1206 213 q 749 -1 846 -1 l 733 0 l 0 0 l 88 217 l 760 217 q 913 265 846 225 l 619 382 q 469 510 524 439 l 317 772 l 544 933 l 686 696 q 735 638 708 665 q 799 588 763 611 m 785 999 q 926 1080 858 1032 q 1050 1207 994 1128 l 1279 1207 q 1051 1001 1217 1050 l 785 999 z "},"Þ":{"ha":1349,"x_min":0,"x_max":1390,"o":"m 346 135 l 439 365 l 1053 365 l 1090 458 q 1044 561 1111 522 q 883 596 972 601 l 468 596 l 231 0 l 0 0 l 374 924 l 601 924 l 561 824 l 1022 824 q 1257 751 1172 822 q 1390 596 1344 682 l 1204 135 l 346 135 z "},"ß":{"ha":1349,"x_min":-85,"x_max":1432,"o":"m 142 -208 l 506 692 l 925 692 l 947 693 q 1021 684 988 693 q 1086 657 1054 675 q 1136 567 1154 618 l 697 567 l 615 364 l 800 364 q 876 341 842 357 q 942 297 911 325 q 997 225 1006 242 l 558 225 l 468 0 l 1153 0 l 1279 314 q 1232 391 1258 360 q 1181 443 1206 422 q 1140 475 1157 464 q 1121 493 1122 486 l 1351 493 l 1432 692 q 1297 847 1386 779 q 1198 902 1253 882 q 1064 922 1143 922 l 372 922 l -85 -208 l 142 -208 z "},"à":{"ha":1349,"x_min":0,"x_max":1246,"o":"m 979 238 l 854 689 l 351 238 l 979 238 m 1153 0 l 0 0 l 93 231 l 861 922 l 1035 922 l 1246 231 l 1153 0 m 1194 999 l 922 999 q 869 1207 807 1051 l 1099 1207 q 1120 1080 1092 1128 q 1194 999 1149 1032 z "},"á":{"ha":1349,"x_min":0,"x_max":1279,"o":"m 979 238 l 854 689 l 351 238 l 979 238 m 1153 0 l 0 0 l 93 231 l 861 922 l 1035 922 l 1246 231 l 1153 0 m 785 999 q 926 1080 858 1032 q 1050 1207 994 1128 l 1279 1207 q 1058 1001 1215 1049 l 785 999 z "},"â":{"ha":1349,"x_min":0,"x_max":1301,"o":"m 979 238 l 854 689 l 351 238 l 979 238 m 1153 0 l 0 0 l 93 231 l 861 922 l 1035 922 l 1246 231 l 1153 0 m 911 1204 l 1232 1204 l 1301 994 l 1063 994 l 1033 1119 l 889 996 l 667 996 l 911 1204 z "},"ã":{"ha":1349,"x_min":0,"x_max":1394,"o":"m 979 238 l 854 689 l 351 238 l 979 238 m 1153 0 l 0 0 l 93 231 l 861 922 l 1035 922 l 1246 231 l 1153 0 m 872 1204 l 1090 1204 l 1113 1106 l 1219 1204 l 1394 1204 l 1182 996 l 963 996 l 929 1086 l 833 996 l 671 996 l 872 1204 z "},"ä":{"ha":1349,"x_min":0,"x_max":1382,"o":"m 979 238 l 854 689 l 351 238 l 979 238 m 1153 0 l 0 0 l 93 231 l 861 922 l 1035 922 l 1246 231 l 1153 0 m 746 1207 l 990 1207 l 904 994 l 660 994 l 746 1207 m 1382 1207 l 1296 994 l 1051 994 l 1138 1207 l 1382 1207 z "},"å":{"ha":1349,"x_min":0,"x_max":1246,"o":"m 979 238 l 854 689 l 351 238 l 979 238 m 1153 0 l 0 0 l 93 231 l 861 922 l 1035 922 l 1246 231 l 1153 0 m 1189 1207 l 1103 994 l 858 994 l 944 1207 l 1189 1207 z "},"æ":{"ha":2261,"x_min":0,"x_max":2411,"o":"m 1988 588 l 1371 588 q 1483 657 1383 618 q 1569 684 1528 675 q 1653 693 1611 693 l 1672 692 l 2318 692 l 2411 922 l 1719 922 q 1569 901 1643 922 q 1424 848 1494 881 q 1289 774 1354 815 q 1165 692 1224 733 l 1132 607 l 1035 922 l 861 922 l 93 231 l 0 0 l 1153 0 l 1168 38 q 1347 0 1239 4 l 2039 0 l 2132 231 l 1486 231 l 1465 229 q 1390 238 1426 229 q 1325 265 1354 246 q 1278 356 1258 306 l 1893 356 l 1988 588 m 979 238 l 351 238 l 854 689 l 979 238 z "},"ç":{"ha":1349,"x_min":93,"x_max":1525,"o":"m 343 -244 l 585 -244 q 702 -140 650 -182 q 765 -72 754 -97 l 794 0 l 1153 0 l 1246 231 l 600 231 q 439 264 513 224 q 392 356 372 306 l 488 590 q 597 657 499 618 q 786 692 704 697 l 1432 692 l 1525 922 l 833 922 q 538 847 679 915 q 401 774 465 813 q 279 692 338 735 l 93 231 q 151 147 118 186 q 225 74 185 108 q 461 0 307 7 l 550 0 l 521 -71 q 498 -99 515 -82 q 456 -137 481 -115 q 401 -187 431 -160 q 343 -244 372 -214 z "},"è":{"ha":1349,"x_min":93,"x_max":1525,"o":"m 1101 588 l 1007 356 l 392 356 q 439 265 372 306 q 504 238 468 246 q 579 229 540 229 l 600 231 l 1246 231 l 1153 0 l 461 0 q 225 74 307 7 q 151 147 185 108 q 93 231 118 186 l 279 692 q 403 774 338 733 q 538 848 468 815 q 683 901 608 881 q 833 922 757 922 l 1525 922 l 1432 692 l 786 692 l 767 693 q 683 684 725 693 q 597 657 642 675 q 485 588 497 618 l 1101 588 m 1194 999 l 922 999 q 869 1207 807 1051 l 1099 1207 q 1120 1080 1092 1128 q 1194 999 1149 1032 z "},"é":{"ha":1349,"x_min":93,"x_max":1525,"o":"m 1101 588 l 1007 356 l 392 356 q 439 265 372 306 q 504 238 468 246 q 579 229 540 229 l 600 231 l 1246 231 l 1153 0 l 461 0 q 225 74 307 7 q 151 147 185 108 q 93 231 118 186 l 279 692 q 403 774 338 733 q 538 848 468 815 q 683 901 608 881 q 833 922 757 922 l 1525 922 l 1432 692 l 786 692 l 767 693 q 683 684 725 693 q 597 657 642 675 q 485 588 497 618 l 1101 588 m 840 999 q 982 1080 914 1032 q 1106 1207 1050 1128 l 1336 1207 q 1115 999 1271 1046 l 840 999 z "},"ê":{"ha":1349,"x_min":93,"x_max":1525,"o":"m 1101 588 l 1007 356 l 392 356 q 439 265 372 306 q 504 238 468 246 q 579 229 540 229 l 600 231 l 1246 231 l 1153 0 l 461 0 q 225 74 307 7 q 151 147 185 108 q 93 231 118 186 l 279 692 q 403 774 338 733 q 538 848 468 815 q 683 901 608 881 q 833 922 757 922 l 1525 922 l 1432 692 l 786 692 l 767 693 q 683 684 725 693 q 597 657 642 675 q 485 588 497 618 l 1101 588 m 931 1204 l 1251 1204 l 1319 994 l 1082 994 l 1047 1119 l 908 996 l 685 996 l 931 1204 z "},"ë":{"ha":1349,"x_min":93,"x_max":1525,"o":"m 1101 588 l 1007 356 l 392 356 q 439 265 372 306 q 504 238 468 246 q 579 229 540 229 l 600 231 l 1246 231 l 1153 0 l 461 0 q 225 74 307 7 q 151 147 185 108 q 93 231 118 186 l 279 692 q 403 774 338 733 q 538 848 468 815 q 683 901 608 881 q 833 922 757 922 l 1525 922 l 1432 692 l 786 692 l 767 693 q 683 684 725 693 q 597 657 642 675 q 485 588 497 618 l 1101 588 m 746 1207 l 990 1207 l 904 994 l 660 994 l 746 1207 m 1382 1207 l 1296 994 l 1051 994 l 1138 1207 l 1382 1207 z "},"ì":{"ha":432,"x_min":0,"x_max":738,"o":"m 508 642 l 249 0 l 0 0 l 260 642 l 508 642 m 621 922 l 528 692 l 279 692 l 372 922 l 621 922 m 738 999 l 465 999 q 413 1207 350 1051 l 642 1207 q 663 1080 635 1128 q 738 999 692 1032 z "},"í":{"ha":432,"x_min":0,"x_max":822,"o":"m 508 642 l 249 0 l 0 0 l 260 642 l 508 642 m 621 922 l 528 692 l 279 692 l 372 922 l 621 922 m 328 999 q 469 1080 401 1032 q 593 1207 538 1128 l 822 1207 q 601 1001 758 1049 l 328 999 z "},"î":{"ha":432,"x_min":0,"x_max":929,"o":"m 508 642 l 249 0 l 0 0 l 260 642 l 508 642 m 621 922 l 528 692 l 279 692 l 372 922 l 621 922 m 293 1207 l 538 1207 l 453 996 l 208 996 l 293 1207 m 596 996 l 681 1207 l 929 1207 l 843 994 l 596 996 z "},"ï":{"ha":432,"x_min":0,"x_max":843,"o":"m 508 642 l 249 0 l 0 0 l 260 642 l 508 642 m 621 922 l 528 692 l 279 692 l 372 922 l 621 922 m 453 1204 l 774 1204 l 843 994 l 604 994 l 575 1119 l 431 996 l 208 996 l 453 1204 z "},"ð":{"ha":1349,"x_min":93,"x_max":1525,"o":"m 1142 692 l 1049 461 l 431 461 l 393 369 q 440 264 372 307 q 600 231 507 224 l 1017 231 l 1296 922 l 1525 922 l 1153 0 l 461 0 q 226 74 308 7 q 93 231 142 140 l 279 692 l 1142 692 z "},"ñ":{"ha":1349,"x_min":0,"x_max":1432,"o":"m 528 692 l 249 0 l 0 0 l 372 922 l 1064 922 q 1297 847 1217 915 q 1432 692 1386 779 l 1153 0 l 904 0 l 1143 590 q 1086 657 1153 617 q 947 693 1018 693 l 925 692 l 528 692 m 872 1204 l 1090 1204 l 1113 1106 l 1219 1204 l 1394 1204 l 1182 996 l 963 996 l 929 1086 l 833 996 l 671 996 l 872 1204 z "},"ò":{"ha":1349,"x_min":93,"x_max":1432,"o":"m 392 356 l 488 590 q 597 657 499 618 q 786 692 704 697 l 925 692 q 1086 657 1013 697 q 1143 590 1153 617 l 1047 356 q 928 264 1029 306 q 739 231 828 225 l 600 231 q 439 264 513 224 q 392 356 372 306 m 558 0 l 692 0 q 985 74 850 6 q 1246 231 1128 142 l 1432 692 q 1297 847 1386 779 q 1064 922 1215 915 l 833 922 q 538 847 679 915 q 404 774 468 813 q 279 692 340 736 l 93 231 q 151 147 118 186 q 225 74 185 108 q 461 0 307 7 l 558 0 m 1194 999 q 1120 1080 1149 1032 q 1099 1207 1092 1128 l 869 1207 q 922 999 806 1047 l 1194 999 z "},"ó":{"ha":1349,"x_min":93,"x_max":1432,"o":"m 392 356 l 488 590 q 597 657 499 618 q 786 692 704 697 l 925 692 q 1086 657 1013 697 q 1143 590 1153 617 l 1047 356 q 928 264 1029 306 q 739 231 828 225 l 600 231 q 439 264 513 224 q 392 356 372 306 m 558 0 l 692 0 q 985 74 850 6 q 1246 231 1128 142 l 1432 692 q 1297 847 1386 779 q 1064 922 1215 915 l 833 922 q 538 847 679 915 q 404 774 468 813 q 279 692 340 736 l 93 231 q 151 147 118 186 q 225 74 185 108 q 461 0 307 7 l 558 0 m 785 999 l 1050 999 q 1279 1207 1217 1050 l 1050 1207 q 926 1080 994 1128 q 785 999 858 1032 z "},"ô":{"ha":1349,"x_min":93,"x_max":1432,"o":"m 392 356 l 488 590 q 597 657 499 618 q 786 692 704 697 l 925 692 q 1086 657 1013 697 q 1143 590 1153 617 l 1047 356 q 928 264 1029 306 q 739 231 828 225 l 600 231 q 439 264 513 224 q 392 356 372 306 m 558 0 l 692 0 q 985 74 850 6 q 1246 231 1128 142 l 1432 692 q 1297 847 1386 779 q 1064 922 1215 915 l 833 922 q 538 847 679 915 q 404 774 468 813 q 279 692 340 736 l 93 231 q 151 147 118 186 q 225 74 185 108 q 461 0 307 7 l 558 0 m 907 1204 l 660 994 l 883 994 l 1031 1124 l 1060 996 l 1297 996 l 1228 1204 l 907 1204 z "},"õ":{"ha":1349,"x_min":93,"x_max":1432,"o":"m 392 356 l 488 590 q 597 657 499 618 q 786 692 704 697 l 925 692 q 1086 657 1013 697 q 1143 590 1153 617 l 1047 356 q 928 264 1029 306 q 739 231 828 225 l 600 231 q 439 264 513 224 q 392 356 372 306 m 558 0 l 692 0 q 985 74 850 6 q 1246 231 1128 142 l 1432 692 q 1297 847 1386 779 q 1064 922 1215 915 l 833 922 q 538 847 679 915 q 404 774 468 813 q 279 692 340 736 l 93 231 q 151 147 118 186 q 225 74 185 108 q 461 0 307 7 l 558 0 m 872 1204 l 669 994 l 832 994 l 929 1086 l 946 996 l 1182 996 l 1396 1207 l 1221 1207 l 1113 1106 l 1090 1204 l 872 1204 z "},"ö":{"ha":1349,"x_min":93,"x_max":1432,"o":"m 392 356 l 488 590 q 597 657 499 618 q 786 692 704 697 l 925 692 q 1086 657 1013 697 q 1143 590 1153 617 l 1047 356 q 928 264 1029 306 q 739 231 828 225 l 600 231 q 439 264 513 224 q 392 356 372 306 m 558 0 l 692 0 q 985 74 850 6 q 1246 231 1128 142 l 1432 692 q 1297 847 1386 779 q 1064 922 1215 915 l 833 922 q 538 847 679 915 q 404 774 468 813 q 279 692 340 736 l 93 231 q 151 147 118 186 q 225 74 185 108 q 461 0 307 7 l 558 0 m 1382 1207 l 1138 1207 l 1051 994 l 1296 994 l 1382 1207 m 746 1207 l 660 994 l 904 994 l 990 1207 l 746 1207 z "},"÷":{"ha":888,"x_min":169,"x_max":947,"o":"m 279 692 l 224 554 l 169 418 l 504 418 l 838 418 l 947 692 l 279 692 m 515 92 l 625 364 l 478 364 l 332 364 l 222 92 l 515 92 m 888 1013 l 776 740 l 629 740 l 483 740 l 594 1014 l 888 1013 z "},"ø":{"ha":1349,"x_min":0,"x_max":1532,"o":"m 256 0 l 299 31 q 461 0 361 4 l 692 0 q 985 74 850 7 q 1246 231 1128 142 l 1432 692 q 1399 744 1417 719 q 1358 793 1381 769 l 1532 919 l 1264 919 l 1225 890 q 1150 913 1190 906 q 1064 922 1110 919 l 833 922 q 538 847 679 915 q 401 774 465 813 q 279 692 338 735 l 93 231 q 128 176 110 203 q 169 124 146 149 l 0 0 l 256 0 m 488 590 q 597 657 499 618 q 786 692 704 697 l 925 692 l 951 692 l 403 293 q 392 356 379 322 l 488 590 m 1128 628 q 1143 590 1149 604 l 1047 356 q 928 264 1029 306 q 739 231 822 225 l 600 231 q 588 229 597 229 l 575 229 l 1128 628 z "},"ù":{"ha":1349,"x_min":93,"x_max":1525,"o":"m 621 922 l 392 356 q 439 264 372 306 q 600 231 513 224 l 739 231 q 928 264 822 225 q 1047 356 1029 306 l 1276 922 l 1525 922 l 1246 231 q 985 74 1128 142 q 692 0 850 7 l 461 0 q 225 74 307 7 q 151 147 185 108 q 93 231 118 186 l 372 922 l 621 922 m 1194 999 l 922 999 q 869 1207 807 1051 l 1099 1207 q 1120 1080 1092 1128 q 1194 999 1149 1032 z "},"ú":{"ha":1349,"x_min":93,"x_max":1525,"o":"m 621 922 l 392 356 q 439 264 372 306 q 600 231 513 224 l 739 231 q 928 264 822 225 q 1047 356 1029 306 l 1276 922 l 1525 922 l 1246 231 q 985 74 1128 142 q 692 0 850 7 l 461 0 q 225 74 307 7 q 151 147 185 108 q 93 231 118 186 l 372 922 l 621 922 m 785 999 q 926 1080 858 1032 q 1050 1207 994 1128 l 1279 1207 q 1058 1001 1215 1049 l 785 999 z "},"û":{"ha":1349,"x_min":93,"x_max":1525,"o":"m 621 922 l 392 356 q 439 264 372 306 q 600 231 513 224 l 739 231 q 928 264 822 225 q 1047 356 1029 306 l 1276 922 l 1525 922 l 1246 231 q 985 74 1128 142 q 692 0 850 7 l 461 0 q 225 74 307 7 q 151 147 185 108 q 93 231 118 186 l 372 922 l 621 922 m 907 1204 l 1228 1204 l 1296 994 l 1058 994 l 1029 1119 l 885 996 l 661 996 l 907 1204 z "},"ü":{"ha":1349,"x_min":93,"x_max":1525,"o":"m 621 922 l 392 356 q 439 264 372 306 q 600 231 513 224 l 739 231 q 928 264 822 225 q 1047 356 1029 306 l 1276 922 l 1525 922 l 1246 231 q 985 74 1128 142 q 692 0 850 7 l 461 0 q 225 74 307 7 q 151 147 185 108 q 93 231 118 186 l 372 922 l 621 922 m 1382 1207 l 1296 994 l 1051 994 l 1138 1207 l 1382 1207 m 742 1207 l 986 1207 l 900 994 l 656 994 l 742 1207 z "},"ý":{"ha":1349,"x_min":0,"x_max":1525,"o":"m 799 588 l 1129 453 l 1318 922 l 1525 922 l 1294 350 q 1018 101 1206 213 q 749 -1 846 -1 l 733 0 l 0 0 l 88 217 l 760 217 q 913 265 846 225 l 619 382 q 469 510 524 439 l 317 772 l 544 933 l 686 696 q 735 638 708 665 q 799 588 763 611 m 785 999 q 926 1080 858 1032 q 1050 1207 994 1128 l 1279 1207 q 1051 1001 1217 1050 l 785 999 z "},"þ":{"ha":1349,"x_min":0,"x_max":1468,"o":"m 610 788 l 517 557 l 1131 557 l 1093 464 q 964 361 1064 400 q 775 326 857 321 l 360 326 l 603 922 l 372 922 l 0 -1 l 228 -1 l 268 99 l 729 99 q 878 118 806 100 q 1022 171 951 136 q 1282 326 1167 240 l 1468 788 l 610 788 z "},"ÿ":{"ha":1349,"x_min":0,"x_max":1525,"o":"m 799 588 l 1129 453 l 1318 922 l 1525 922 l 1294 350 q 1018 101 1206 213 q 733 0 836 -8 l 0 0 l 88 217 l 760 217 q 913 265 846 225 l 619 382 q 469 510 524 439 l 317 772 l 546 935 l 639 775 l 686 696 q 735 638 708 665 q 799 588 763 611 m 746 1207 l 990 1207 l 904 994 l 660 994 l 746 1207 m 1382 1207 l 1296 994 l 1051 994 l 1138 1207 l 1382 1207 z "},"∙":{"ha":694,"x_min":0,"x_max":0,"o":""}}}
